<?xml version="1.0" encoding="UTF-8"?>
<svg xmlns="http://www.w3.org/2000/svg" xmlns:xlink="http://www.w3.org/1999/xlink" width="60px" height="60px" viewBox="0 0 60 60" version="1.1">
<g id="surface1">
<path style=" stroke:none;fill-rule:nonzero;fill:rgb(93.725491%,93.725491%,95.686275%);fill-opacity:1;" d="M 0 0 C 19.800781 0 39.601562 0 60 0 C 60 19.800781 60 39.601562 60 60 C 40.199219 60 20.398438 60 0 60 C 0 40.199219 0 20.398438 0 0 Z M 0 0 "/>
<path style=" stroke:none;fill-rule:nonzero;fill:rgb(11.372549%,50.196081%,94.117647%);fill-opacity:1;" d="M 30.132812 8.886719 C 30.195312 8.886719 30.261719 8.886719 30.328125 8.886719 C 31.304688 8.890625 32.257812 8.921875 33.222656 9.082031 C 33.277344 9.089844 33.332031 9.097656 33.390625 9.109375 C 33.765625 9.167969 34.140625 9.238281 34.511719 9.316406 C 34.558594 9.324219 34.605469 9.335938 34.65625 9.34375 C 36.207031 9.660156 37.714844 10.21875 39.140625 10.898438 C 39.191406 10.921875 39.246094 10.949219 39.300781 10.972656 C 40.652344 11.613281 41.894531 12.429688 43.066406 13.359375 C 43.121094 13.402344 43.175781 13.445312 43.230469 13.492188 C 43.871094 14.003906 44.460938 14.566406 45.039062 15.144531 C 45.128906 15.234375 45.21875 15.324219 45.308594 15.414062 C 45.679688 15.785156 46.019531 16.167969 46.347656 16.582031 C 46.402344 16.648438 46.460938 16.714844 46.515625 16.78125 C 48.375 19.003906 49.75 21.746094 50.449219 24.550781 C 50.472656 24.640625 50.472656 24.640625 50.496094 24.734375 C 50.90625 26.40625 51.121094 28.050781 51.117188 29.777344 C 51.117188 29.867188 51.117188 29.867188 51.117188 29.960938 C 51.101562 35.160156 49.101562 40.261719 45.5625 44.074219 C 45.433594 44.210938 45.3125 44.351562 45.191406 44.492188 C 44.898438 44.828125 44.582031 45.128906 44.246094 45.417969 C 44.160156 45.492188 44.078125 45.566406 43.996094 45.644531 C 43.539062 46.070312 43.039062 46.441406 42.539062 46.816406 C 42.488281 46.855469 42.488281 46.855469 42.433594 46.894531 C 41.832031 47.347656 41.195312 47.730469 40.546875 48.105469 C 40.503906 48.132812 40.460938 48.15625 40.414062 48.183594 C 35.789062 50.886719 30.023438 51.613281 24.839844 50.324219 C 23.527344 49.980469 22.261719 49.507812 21.035156 48.925781 C 20.984375 48.902344 20.929688 48.878906 20.878906 48.851562 C 19.207031 48.0625 17.683594 47.027344 16.289062 45.820312 C 16.246094 45.785156 16.203125 45.75 16.160156 45.710938 C 15.441406 45.085938 14.738281 44.4375 14.121094 43.710938 C 14.074219 43.660156 14.027344 43.605469 13.980469 43.550781 C 13.1875 42.636719 12.507812 41.648438 11.894531 40.605469 C 11.855469 40.539062 11.855469 40.539062 11.816406 40.46875 C 10.871094 38.855469 10.171875 37.132812 9.667969 35.332031 C 9.648438 35.261719 9.648438 35.261719 9.628906 35.1875 C 9.445312 34.550781 9.324219 33.90625 9.21875 33.253906 C 9.207031 33.183594 9.195312 33.113281 9.179688 33.039062 C 9.015625 31.972656 8.945312 30.914062 8.949219 29.835938 C 8.949219 29.777344 8.949219 29.722656 8.949219 29.664062 C 8.964844 26.570312 9.636719 23.582031 11.015625 20.800781 C 11.042969 20.746094 11.070312 20.691406 11.097656 20.636719 C 11.945312 18.941406 13 17.359375 14.285156 15.960938 C 14.394531 15.84375 14.5 15.722656 14.605469 15.597656 C 14.824219 15.347656 15.054688 15.113281 15.289062 14.878906 C 15.328125 14.839844 15.367188 14.800781 15.40625 14.761719 C 15.671875 14.496094 15.945312 14.246094 16.230469 14.003906 C 16.265625 13.972656 16.304688 13.941406 16.34375 13.90625 C 19.261719 11.414062 22.832031 9.785156 26.609375 9.125 C 26.660156 9.117188 26.710938 9.109375 26.761719 9.097656 C 27.878906 8.917969 29.003906 8.882812 30.132812 8.886719 Z M 30.132812 8.886719 "/>
<path style=" stroke:none;fill-rule:nonzero;fill:rgb(0%,23.921569%,48.627451%);fill-opacity:1;" d="M 28.476562 14.941406 C 28.546875 14.957031 28.621094 14.972656 28.695312 14.988281 C 29.933594 15.285156 31.167969 15.847656 32.167969 16.640625 C 32.21875 16.679688 32.273438 16.722656 32.328125 16.765625 C 32.621094 17 32.90625 17.246094 33.179688 17.503906 C 33.261719 17.582031 33.261719 17.582031 33.34375 17.660156 C 33.457031 17.8125 33.457031 17.8125 33.460938 17.960938 C 33.28125 18.386719 32.859375 18.710938 32.511719 19.003906 C 32.402344 19.101562 32.308594 19.207031 32.210938 19.320312 C 31.933594 19.648438 31.609375 19.929688 31.289062 20.214844 C 31.226562 20.273438 31.226562 20.273438 31.164062 20.335938 C 30.917969 20.558594 30.917969 20.558594 30.738281 20.589844 C 30.523438 20.554688 30.453125 20.457031 30.3125 20.300781 C 29.726562 19.683594 28.984375 19.261719 28.183594 18.984375 C 28.128906 18.960938 28.070312 18.941406 28.011719 18.917969 C 26.710938 18.480469 25.1875 18.675781 23.96875 19.261719 C 23.582031 19.457031 23.242188 19.699219 22.910156 19.980469 C 22.824219 20.050781 22.824219 20.050781 22.742188 20.125 C 22.382812 20.4375 22.074219 20.765625 21.796875 21.152344 C 21.75 21.21875 21.75 21.21875 21.703125 21.285156 C 21.507812 21.582031 21.375 21.894531 21.253906 22.230469 C 21.242188 22.269531 21.226562 22.308594 21.210938 22.347656 C 21 22.960938 20.957031 23.578125 20.957031 24.222656 C 20.957031 24.289062 20.957031 24.359375 20.960938 24.433594 C 20.96875 25.1875 21.097656 25.808594 21.445312 26.484375 C 21.46875 26.535156 21.496094 26.585938 21.519531 26.640625 C 22.085938 27.769531 23.089844 28.535156 24.269531 28.953125 C 25.582031 29.328125 26.992188 29.203125 28.1875 28.554688 C 29.488281 27.808594 30.25 26.65625 30.777344 25.292969 C 30.820312 25.195312 30.820312 25.195312 30.878906 25.136719 C 31.035156 25.128906 31.1875 25.128906 31.34375 25.125 C 31.394531 25.125 31.445312 25.125 31.496094 25.125 C 31.660156 25.125 31.828125 25.125 31.996094 25.121094 C 32.113281 25.121094 32.234375 25.121094 32.351562 25.121094 C 32.675781 25.117188 33 25.117188 33.328125 25.113281 C 33.527344 25.113281 33.730469 25.113281 33.933594 25.113281 C 34.640625 25.109375 35.347656 25.105469 36.050781 25.101562 C 36.710938 25.097656 37.371094 25.09375 38.03125 25.089844 C 38.59375 25.085938 39.160156 25.082031 39.726562 25.082031 C 40.0625 25.078125 40.402344 25.078125 40.738281 25.074219 C 41.054688 25.074219 41.375 25.070312 41.691406 25.070312 C 41.808594 25.070312 41.925781 25.070312 42.042969 25.066406 C 42.203125 25.066406 42.359375 25.066406 42.519531 25.066406 C 42.566406 25.066406 42.613281 25.066406 42.660156 25.0625 C 43.0625 25.066406 43.0625 25.066406 43.242188 25.195312 C 43.335938 25.378906 43.3125 25.574219 43.3125 25.777344 C 43.3125 25.824219 43.3125 25.875 43.3125 25.921875 C 43.316406 26.082031 43.316406 26.242188 43.316406 26.402344 C 43.316406 26.457031 43.316406 26.511719 43.316406 26.566406 C 43.320312 26.855469 43.320312 27.140625 43.320312 27.429688 C 43.324219 27.726562 43.324219 28.023438 43.328125 28.320312 C 43.328125 28.550781 43.332031 28.78125 43.332031 29.007812 C 43.332031 29.117188 43.332031 29.226562 43.332031 29.335938 C 43.335938 29.492188 43.335938 29.644531 43.335938 29.796875 C 43.335938 29.84375 43.335938 29.886719 43.335938 29.933594 C 43.335938 30.164062 43.304688 30.316406 43.164062 30.496094 C 42.824219 30.820312 42.28125 30.746094 41.835938 30.761719 C 41.738281 30.765625 41.738281 30.765625 41.640625 30.769531 C 41.425781 30.777344 41.214844 30.78125 41 30.785156 C 40.933594 30.785156 40.863281 30.789062 40.792969 30.789062 C 40.300781 30.796875 40.300781 30.796875 40.0625 30.628906 C 39.808594 30.226562 39.902344 29.695312 39.902344 29.238281 C 37.71875 29.238281 35.53125 29.238281 33.28125 29.238281 C 33.28125 32.371094 33.28125 35.503906 33.28125 38.730469 C 35.542969 38.730469 37.804688 38.730469 40.136719 38.730469 C 40.136719 38.265625 40.136719 37.800781 40.136719 37.324219 C 40.449219 36.933594 40.449219 36.933594 40.726562 36.898438 C 40.765625 36.898438 40.808594 36.898438 40.851562 36.898438 C 40.902344 36.894531 40.949219 36.894531 41 36.894531 C 41.050781 36.894531 41.101562 36.894531 41.15625 36.894531 C 41.210938 36.894531 41.261719 36.894531 41.320312 36.894531 C 41.433594 36.894531 41.546875 36.890625 41.660156 36.890625 C 41.832031 36.890625 42.003906 36.890625 42.175781 36.886719 C 42.289062 36.886719 42.398438 36.886719 42.507812 36.886719 C 42.558594 36.886719 42.609375 36.886719 42.664062 36.882812 C 42.90625 36.886719 43.035156 36.894531 43.246094 37.027344 C 43.453125 37.25 43.425781 37.449219 43.425781 37.742188 C 43.425781 37.816406 43.425781 37.816406 43.425781 37.894531 C 43.425781 38.054688 43.429688 38.21875 43.429688 38.382812 C 43.429688 38.496094 43.429688 38.609375 43.429688 38.726562 C 43.429688 38.964844 43.429688 39.203125 43.429688 39.441406 C 43.429688 39.746094 43.429688 40.050781 43.429688 40.355469 C 43.429688 40.589844 43.429688 40.824219 43.429688 41.058594 C 43.429688 41.171875 43.433594 41.285156 43.433594 41.398438 C 43.433594 41.554688 43.433594 41.714844 43.433594 41.871094 C 43.433594 41.917969 43.433594 41.964844 43.433594 42.011719 C 43.429688 42.421875 43.429688 42.421875 43.300781 42.597656 C 43.070312 42.75 42.875 42.730469 42.605469 42.730469 C 42.550781 42.730469 42.496094 42.730469 42.441406 42.730469 C 42.261719 42.730469 42.082031 42.730469 41.898438 42.730469 C 41.769531 42.730469 41.640625 42.730469 41.511719 42.730469 C 41.160156 42.734375 40.808594 42.734375 40.453125 42.734375 C 40.160156 42.734375 39.867188 42.734375 39.574219 42.734375 C 38.839844 42.734375 38.109375 42.734375 37.375 42.734375 C 36.738281 42.734375 36.105469 42.734375 35.46875 42.734375 C 34.816406 42.734375 34.160156 42.738281 33.507812 42.734375 C 33.140625 42.734375 32.773438 42.734375 32.410156 42.738281 C 32.0625 42.738281 31.71875 42.738281 31.375 42.738281 C 31.246094 42.738281 31.121094 42.738281 30.992188 42.738281 C 30.820312 42.738281 30.648438 42.738281 30.476562 42.738281 C 30.425781 42.738281 30.375 42.738281 30.324219 42.738281 C 29.992188 42.734375 29.800781 42.671875 29.546875 42.453125 C 29.382812 42.253906 29.40625 42.035156 29.40625 41.792969 C 29.40625 41.730469 29.40625 41.730469 29.40625 41.671875 C 29.40625 41.535156 29.40625 41.398438 29.40625 41.265625 C 29.40625 41.167969 29.40625 41.070312 29.40625 40.972656 C 29.40625 40.710938 29.40625 40.445312 29.40625 40.183594 C 29.410156 39.90625 29.410156 39.632812 29.410156 39.355469 C 29.410156 38.832031 29.410156 38.3125 29.410156 37.789062 C 29.410156 37.195312 29.410156 36.601562 29.410156 36.007812 C 29.410156 34.789062 29.414062 33.566406 29.414062 32.34375 C 29.355469 32.367188 29.292969 32.390625 29.230469 32.417969 C 29.152344 32.449219 29.070312 32.480469 28.992188 32.511719 C 28.953125 32.527344 28.914062 32.546875 28.871094 32.5625 C 26.96875 33.324219 24.777344 33.332031 22.851562 32.636719 C 22.78125 32.613281 22.710938 32.585938 22.636719 32.5625 C 20.832031 31.894531 19.261719 30.558594 18.222656 28.945312 C 18.1875 28.894531 18.15625 28.84375 18.121094 28.792969 C 17.269531 27.449219 16.921875 25.910156 16.917969 24.34375 C 16.917969 24.199219 16.917969 24.058594 16.914062 23.917969 C 16.910156 23.089844 17.019531 22.300781 17.265625 21.507812 C 17.28125 21.457031 17.296875 21.410156 17.3125 21.359375 C 17.675781 20.21875 18.246094 19.125 19.042969 18.222656 C 19.085938 18.175781 19.125 18.128906 19.167969 18.078125 C 20.753906 16.28125 23.015625 14.941406 25.449219 14.773438 C 26.464844 14.722656 27.484375 14.707031 28.476562 14.941406 Z M 28.476562 14.941406 "/>
<path style=" stroke:none;fill-rule:nonzero;fill:rgb(8.235294%,45.09804%,95.294118%);fill-opacity:1;" d="M 10.722656 21.503906 C 10.78125 21.621094 10.78125 21.621094 10.726562 21.785156 C 10.6875 21.882812 10.6875 21.882812 10.644531 21.984375 C 10.539062 22.25 10.441406 22.511719 10.371094 22.792969 C 10.332031 22.792969 10.292969 22.792969 10.253906 22.792969 C 10.246094 22.847656 10.238281 22.902344 10.230469 22.960938 C 10.195312 23.144531 10.195312 23.144531 10.078125 23.261719 C 10.109375 22.894531 10.226562 22.589844 10.367188 22.25 C 10.386719 22.199219 10.410156 22.144531 10.429688 22.089844 C 10.515625 21.878906 10.597656 21.695312 10.722656 21.503906 Z M 10.722656 21.503906 "/>
<path style=" stroke:none;fill-rule:nonzero;fill:rgb(17.647059%,52.941179%,94.117647%);fill-opacity:1;" d="M 9.257812 26.953125 C 9.316406 27.132812 9.316406 27.21875 9.289062 27.402344 C 9.285156 27.449219 9.277344 27.5 9.273438 27.546875 C 9.269531 27.582031 9.261719 27.617188 9.257812 27.65625 C 9.21875 27.65625 9.179688 27.65625 9.140625 27.65625 C 9.050781 27.476562 9.066406 27.324219 9.082031 27.128906 C 9.171875 27.015625 9.171875 27.015625 9.257812 26.953125 Z M 9.257812 26.953125 "/>
<path style=" stroke:none;fill-rule:nonzero;fill:rgb(0%,18.82353%,39.215687%);fill-opacity:1;" d="M 18.457031 19.042969 C 18.476562 19.082031 18.496094 19.121094 18.515625 19.160156 C 18.460938 19.273438 18.460938 19.273438 18.378906 19.398438 C 18.355469 19.441406 18.328125 19.480469 18.300781 19.523438 C 18.222656 19.628906 18.222656 19.628906 18.105469 19.6875 C 18.191406 19.445312 18.3125 19.253906 18.457031 19.042969 Z M 18.457031 19.042969 "/>
<path style=" stroke:none;fill-rule:nonzero;fill:rgb(16.862746%,52.549022%,94.509804%);fill-opacity:1;" d="M 27.832031 8.964844 C 28.21875 8.949219 28.21875 8.949219 28.417969 9.082031 C 28.257812 9.136719 28.164062 9.148438 27.996094 9.144531 C 27.886719 9.140625 27.886719 9.140625 27.773438 9.140625 C 27.792969 9.082031 27.8125 9.023438 27.832031 8.964844 Z M 27.832031 8.964844 "/>
<path style=" stroke:none;fill-rule:nonzero;fill:rgb(0%,20%,40.784314%);fill-opacity:1;" d="M 24.023438 32.8125 C 24.121094 32.828125 24.21875 32.847656 24.316406 32.871094 C 24.398438 32.886719 24.398438 32.886719 24.480469 32.902344 C 24.523438 32.914062 24.566406 32.921875 24.609375 32.929688 C 24.609375 32.949219 24.609375 32.96875 24.609375 32.988281 C 24.523438 32.992188 24.4375 32.992188 24.351562 32.996094 C 24.304688 32.996094 24.257812 33 24.207031 33 C 24.082031 32.988281 24.082031 32.988281 23.964844 32.871094 C 23.984375 32.851562 24.003906 32.832031 24.023438 32.8125 Z M 24.023438 32.8125 "/>
<path style=" stroke:none;fill-rule:nonzero;fill:rgb(5.882353%,43.921569%,94.901961%);fill-opacity:1;" d="M 18.691406 12.1875 C 18.710938 12.226562 18.730469 12.265625 18.75 12.304688 C 18.632812 12.480469 18.632812 12.480469 18.449219 12.519531 C 18.394531 12.527344 18.339844 12.53125 18.28125 12.539062 C 18.558594 12.253906 18.558594 12.253906 18.691406 12.1875 Z M 18.691406 12.1875 "/>
<path style=" stroke:none;fill-rule:nonzero;fill:rgb(89.019608%,91.764706%,96.078432%);fill-opacity:1;" d="M 51.035156 27.949219 C 51.09375 27.96875 51.152344 27.988281 51.210938 28.007812 C 51.210938 28.144531 51.210938 28.277344 51.210938 28.417969 C 51.152344 28.417969 51.09375 28.417969 51.035156 28.417969 C 51.035156 28.261719 51.035156 28.109375 51.035156 27.949219 Z M 51.035156 27.949219 "/>
</g>
</svg>
