<?xml version="1.0" encoding="UTF-8"?>
<svg version="1.1" xmlns="http://www.w3.org/2000/svg" width="1024" height="1024">
<path d="M0 0 C0.71687988 0.34546875 1.43375977 0.6909375 2.17236328 1.046875 C19.62567816 9.56883061 34.72446772 20.90109604 49 34 C49.85980469 34.78761719 50.71960938 35.57523437 51.60546875 36.38671875 C55.27575376 39.89655414 58.42267618 43.0577187 60 48 C59.78356356 52.25658339 59.37327851 54.44008224 57 58 C56.34 58 55.68 58 55 58 C54.67 58.99 54.34 59.98 54 61 C53.34 61 52.68 61 52 61 C52 61.66 52 62.32 52 63 C50.68066406 64.29370117 50.68066406 64.29370117 48.765625 65.85546875 C45.03628583 69.02540705 41.54454793 72.38056762 38.109375 75.86328125 C37.59330688 76.38501923 37.07723877 76.9067572 36.54553223 77.44430542 C34.39819534 79.61864737 32.25508794 81.7970718 30.11621094 83.97973633 C28.53498902 85.59114694 26.94760969 87.19628644 25.359375 88.80078125 C24.88014587 89.29347 24.40091675 89.78615875 23.90716553 90.29377747 C20.32155899 93.90604678 17.75391745 95.69643736 12.75 96.5625 C7.25987948 95.73898192 4.86079531 92.82212291 1 89 C-20.22236057 68.30238872 -43.70387161 56.36163112 -74 55.75 C-99.78529664 56.30229551 -122.86116293 64.60370805 -141.6875 82.3125 C-160.31326963 102.11368227 -169.62749292 127.89230598 -169 155 C-167.42900655 176.92978605 -160.69736381 197.37205027 -146 214 C-145.5565625 214.58523438 -145.113125 215.17046875 -144.65625 215.7734375 C-133.62293191 230.10329576 -114.48439869 240.36324507 -97 244 C-93.90530862 244.25860931 -91.10882857 244.21076804 -88 244 C-88 244.33 -88 244.66 -88 245 C-84.57426063 245.77528479 -81.42760755 246.11918778 -77.91796875 246.09765625 C-76.52094727 246.09282227 -76.52094727 246.09282227 -75.09570312 246.08789062 C-74.13599609 246.07951172 -73.17628906 246.07113281 -72.1875 246.0625 C-71.20845703 246.05798828 -70.22941406 246.05347656 -69.22070312 246.04882812 C-66.81373889 246.03708684 -64.40690143 246.02066419 -62 246 C-61.67 245.34 -61.34 244.68 -61 244 C-59.96875 243.896875 -58.9375 243.79375 -57.875 243.6875 C-36.27214634 241.43801075 -15.12128483 226.46191979 -1.48535156 210.19287109 C0.47659255 207.72234535 2.40347482 205.23375474 4.26000977 202.68286133 C6.89562335 199.11810638 8.94494065 196.80556878 13 195 C16.52536611 194.55815596 20.02754175 194.59115635 23.57662964 194.61231995 C24.65402063 194.60693441 25.73141161 194.60154887 26.84145081 194.59600013 C30.45805545 194.58167232 34.07429657 194.58883639 37.69091797 194.59594727 C40.281253 194.59024621 42.87158552 194.58328299 45.46191406 194.57514954 C51.77157586 194.55795152 58.08113812 194.55712366 64.39081727 194.56236244 C69.51984391 194.56640386 74.64884113 194.56496092 79.77786636 194.55961418 C80.87286165 194.55849155 80.87286165 194.55849155 81.98997805 194.55734624 C83.47297827 194.55581476 84.95597848 194.55427641 86.43897869 194.55273127 C100.34733963 194.53900236 114.25564432 194.54444643 128.16400398 194.55591648 C140.88513719 194.56584719 153.60612492 194.55291173 166.32723568 194.52898229 C179.39151629 194.50459264 192.45572913 194.49498321 205.52003205 194.50163502 C212.85372849 194.50512781 220.18731306 194.50289135 227.52099228 194.48538399 C234.4173356 194.46912485 241.31339653 194.47384163 248.20973206 194.49268913 C250.74173554 194.49638234 253.27375952 194.49324538 255.80574417 194.48280334 C259.26061965 194.46964248 262.71456774 194.48109883 266.16940308 194.49879456 C267.17281294 194.48918955 268.1762228 194.47958454 269.21003902 194.46968848 C275.34382352 194.53438559 278.98081292 195.40839591 284 199 C287.69844087 203.23883036 287.43294585 207.57789679 287.40405273 212.93359375 C287.41434761 214.26863449 287.41434761 214.26863449 287.42485046 215.63064575 C287.44312027 218.56642707 287.43928108 221.50167415 287.43359375 224.4375 C287.43815509 226.48104018 287.44346052 228.52457882 287.44947815 230.56811523 C287.45840933 234.8485335 287.45598554 239.12876518 287.44604492 243.40917969 C287.43454857 248.89385319 287.45477711 254.37788352 287.48396206 259.86247253 C287.50230821 264.08154386 287.50203486 268.30046056 287.49632454 272.51956177 C287.49617117 274.54176741 287.50222863 276.56398342 287.51461601 278.58615112 C287.5294961 281.41331357 287.51887128 284.23928117 287.50170898 287.06640625 C287.51621094 288.31806076 287.51621094 288.31806076 287.53100586 289.59500122 C287.48148841 293.49103336 287.28284705 295.53423745 285.21864319 298.93334961 C278.30979342 305.36889415 268.1298548 304.17495003 259.23046875 304.01953125 C258.34643875 304.00540695 257.46240875 303.99128265 256.55158997 303.97673035 C254.70205359 303.94390391 252.85257586 303.90759971 251.00317383 303.86791992 C248.17721474 303.81229756 245.35173992 303.78400295 242.52539062 303.75585938 C240.7187162 303.7204336 238.91207277 303.68338173 237.10546875 303.64453125 C236.26582077 303.64016556 235.42617279 303.63579987 234.56108093 303.63130188 C229.45986264 303.48279295 226.68628023 302.84999818 223 299 C220.59895826 295.39843738 220.61418856 293.35460583 220.375 289.0625 C220.26285156 287.22365234 220.26285156 287.22365234 220.1484375 285.34765625 C219.96249117 279.90138623 220 274.44944338 220 269 C143.77 268.505 143.77 268.505 66 268 C66.495 362.545 66.495 362.545 67 459 C117.49 459 167.98 459 220 459 C220 452.4 220 445.8 220 439 C221.2295082 430.39344262 221.2295082 430.39344262 225 427 C232.62127461 423.59457547 239.93387408 423.60159884 248.11889648 423.71875 C250.29754066 423.74978689 252.47545361 423.75972627 254.65429688 423.765625 C278.14434483 423.8936348 278.14434483 423.8936348 286 428 C286 428.99 286 429.98 286 431 C286.33 431.66 286.66 432.32 287 433 C287.12760449 435.61141823 287.19619029 438.1981354 287.22119141 440.81103516 C287.2326973 441.61777679 287.24420319 442.42451843 287.25605774 443.25570679 C287.29285428 445.93345291 287.32244619 448.61122261 287.3515625 451.2890625 C287.37468039 453.15034312 287.39807074 455.01162037 287.42172241 456.87289429 C287.47023835 460.78193159 287.51514917 464.69099012 287.55761719 468.60009766 C287.61222639 473.59678899 287.67610751 478.5933103 287.74279213 483.58985329 C287.79304375 487.43838265 287.83809547 491.28695988 287.88163376 495.13557053 C287.90312196 496.97667808 287.92625675 498.8177672 287.9510994 500.65883255 C287.98523388 503.24339292 288.01229283 505.82793769 288.03759766 508.41259766 C288.05466011 509.54293427 288.05466011 509.54293427 288.07206726 510.69610596 C288.18112559 524.63260231 288.18112559 524.63260231 284.6875 528.375 C280.95780086 532.01796195 278.44560098 533.24841515 273.24820232 533.25726891 C272.29010463 533.2637178 271.33200694 533.27016669 270.34487599 533.276811 C269.29518236 533.2737138 268.24548873 533.2706166 267.16398621 533.26742554 C266.04661412 533.27195665 264.92924204 533.27648776 263.77801019 533.28115618 C260.02017808 533.29385341 256.26248991 533.29217636 252.50463867 533.29052734 C249.81592771 533.29650928 247.12722816 533.30325712 244.43852234 533.31088257 C237.88476848 533.3275 231.33105059 533.33299246 224.77727743 533.33410732 C219.44991001 533.3350575 214.12255447 533.33916628 208.79519081 533.34550858 C193.69179424 533.36312346 178.58842609 533.37234713 163.48501917 533.37084763 C162.67068306 533.37076772 161.85634695 533.3706878 161.01733398 533.37060547 C159.79433858 533.37048283 159.79433858 533.37048283 158.5466362 533.37035771 C145.33399038 533.36954486 132.12145858 533.38868145 118.90884575 533.4168822 C105.3428783 533.44560869 91.77696647 533.45942261 78.21096784 533.45769465 C70.59444033 533.45703064 62.97803233 533.46252769 55.36153221 533.48405075 C48.87627977 533.50225955 42.39120099 533.50661251 35.90593406 533.4930319 C32.59763846 533.4865004 29.28974536 533.48856356 25.9814682 533.5037384 C22.39300142 533.5191334 18.80541209 533.50991946 15.21696472 533.49447632 C13.65246253 533.50990701 13.65246253 533.50990701 12.05635422 533.52564943 C5.82469845 533.46631101 2.0850677 532.67887594 -3 529 C-7.91304229 523.10434925 -7.14773815 514.45466321 -7.12698364 507.13716125 C-7.12854363 506.28039124 -7.13010362 505.42362123 -7.13171089 504.54088849 C-7.13567835 501.68910638 -7.13254784 498.83737814 -7.12939453 495.9855957 C-7.13075043 493.93344085 -7.13253142 491.88128623 -7.13470459 489.82913208 C-7.13925561 484.26952396 -7.13749917 478.70993445 -7.1343255 473.15032601 C-7.1317909 467.32972428 -7.13414242 461.50912413 -7.13571167 455.68852234 C-7.13752971 445.91791498 -7.13513617 436.14731519 -7.13037109 426.37670898 C-7.12492461 415.07837485 -7.12669541 403.78005874 -7.1321975 392.48172504 C-7.13673358 382.77880426 -7.13737688 373.07588892 -7.13475883 363.37296742 C-7.13319938 357.57866729 -7.13299334 351.78437565 -7.13629532 345.99007607 C-7.13918135 340.54573979 -7.13718481 335.10142681 -7.13140106 329.65709305 C-7.1300776 327.65800325 -7.13046058 325.65891149 -7.13266373 323.65982246 C-7.13539131 320.93381767 -7.13197435 318.20788782 -7.12698364 315.48188782 C-7.12921436 314.68870079 -7.13144509 313.89551376 -7.13374341 313.07829076 C-7.12016288 309.26073374 -6.92699455 305.71104503 -6 302 C-7.05574219 302.50789063 -8.11148438 303.01578125 -9.19921875 303.5390625 C-35.3070407 315.79924546 -61.39226916 319.32393272 -90 320 C-90 319.34 -90 318.68 -90 318 C-90.89138672 318.03697998 -90.89138672 318.03697998 -91.80078125 318.07470703 C-98.47239278 318.22904641 -104.50860417 317.35850994 -111 315.875 C-112.00039307 315.64981689 -113.00078613 315.42463379 -114.03149414 315.19262695 C-129.32133727 311.64135118 -143.23111547 306.52921999 -157 299 C-158.10472656 298.39929688 -159.20945312 297.79859375 -160.34765625 297.1796875 C-166.68807581 293.60468482 -172.38614009 289.61863174 -178 285 C-179.29357422 283.98292969 -179.29357422 283.98292969 -180.61328125 282.9453125 C-194.6335655 271.80047551 -205.99446304 258.8009368 -216 244 C-216.43570312 243.37738281 -216.87140625 242.75476563 -217.3203125 242.11328125 C-220 238.24366259 -220 238.24366259 -220 236 C-220.99 235.67 -221.98 235.34 -223 235 C-223 234.01 -223 233.02 -223 232 C-224.14448895 229.67534971 -225.33420676 227.40443955 -226.5625 225.125 C-231.55001434 215.44636962 -235.06263052 205.47169343 -238 195 C-238.2273584 194.20045898 -238.4547168 193.40091797 -238.68896484 192.57714844 C-242.24548408 179.32972938 -242.38613757 165.9353505 -242.4375 152.3125 C-242.44703201 151.01886536 -242.44703201 151.01886536 -242.45675659 149.69909668 C-242.53205181 133.24679824 -240.74161959 117.19788785 -236.0625 101.375 C-235.62405762 99.89193359 -235.62405762 99.89193359 -235.17675781 98.37890625 C-222.10652157 56.52256058 -192.60219511 22.76967888 -154.44140625 1.80078125 C-105.68159106 -23.71371909 -49.42182416 -23.96735949 0 0 Z " fill="#0F325B" transform="translate(490,244)"/>
<path d="M0 0 C0.92359853 -0.00199105 1.84719706 -0.0039821 2.79878342 -0.00603348 C3.82016809 -0.00312064 4.84155276 -0.0002078 5.89388847 0.00279331 C7.51353848 0.00151167 7.51353848 0.00151167 9.16590869 0.00020415 C12.80807042 -0.00145168 16.45018676 0.00407242 20.09234428 0.00952244 C22.69359142 0.00980431 25.29483864 0.00964657 27.89608574 0.00907993 C33.50876275 0.00855482 39.12142816 0.01170031 44.73410225 0.01731777 C52.84915065 0.02543447 60.96419342 0.02804817 69.07924543 0.02930576 C82.24442219 0.03149601 95.40959276 0.03815538 108.57476616 0.04760838 C121.36578147 0.05678318 134.1567951 0.06386368 146.94781303 0.06811619 C147.73585442 0.06837891 148.52389581 0.06864164 149.33581723 0.06891232 C153.28907076 0.07021733 157.24232431 0.07148104 161.19557786 0.07272422 C194.00736258 0.083096 226.81913971 0.10071359 259.6309185 0.12304783 C259.9609185 1.11304783 260.2909185 2.10304783 260.6309185 3.12304783 C172.1909185 3.45304783 83.7509185 3.78304783 -7.3690815 4.12304783 C-7.0390815 3.13304783 -6.7090815 2.14304783 -6.3690815 1.12304783 C-4.01383555 -0.05457515 -2.62585778 -0.00124448 0 0 Z " fill="#10233E" transform="translate(507.3690814971924,438.8769521713257)"/>
<path d="M0 0 C2.17864417 0.03103689 4.35655713 0.04097627 6.53540039 0.046875 C14.68648332 0.09272028 22.76815688 0.445565 30.88110352 1.28125 C30.88110352 1.94125 30.88110352 2.60125 30.88110352 3.28125 C29.9769445 3.29004936 29.9769445 3.29004936 29.05451965 3.29902649 C22.7762726 3.3630001 16.49853627 3.44743022 10.22070312 3.54370117 C7.87832374 3.57693906 5.53586448 3.6049745 3.19335938 3.62768555 C-0.17539481 3.66125168 -3.54341779 3.71357019 -6.91186523 3.76953125 C-8.48087837 3.77911613 -8.48087837 3.77911613 -10.08158875 3.78889465 C-17.11639478 3.85961695 -17.11639478 3.85961695 -23.11889648 7.28125 C-24.48292042 10.00929787 -24.2991161 12.26232802 -24.36499023 15.3125 C-24.41429687 17.11654297 -24.41429687 17.11654297 -24.46459961 18.95703125 C-24.52579535 21.50641969 -24.58308742 24.05590483 -24.63647461 26.60546875 C-24.67063477 27.80816406 -24.70479492 29.01085937 -24.73999023 30.25 C-24.77757446 31.91192383 -24.77757446 31.91192383 -24.81591797 33.60742188 C-25.11889648 36.28125 -25.11889648 36.28125 -27.11889648 38.28125 C-29.78568459 38.52734566 -29.78568459 38.52734566 -33.24380493 38.52175903 C-34.55074814 38.52450836 -35.85769135 38.52725769 -37.20423889 38.53009033 C-38.66098113 38.52301153 -40.11772246 38.51574191 -41.57446289 38.50830078 C-43.101832 38.5077369 -44.62920165 38.50805278 -46.15657043 38.50918579 C-50.31132535 38.50976121 -54.46596551 38.49797645 -58.62069368 38.48403788 C-62.95955612 38.47156189 -67.29842098 38.4703625 -71.63729858 38.46798706 C-79.85730345 38.46176306 -88.07725531 38.44533983 -96.2972368 38.42528808 C-105.65380873 38.40295766 -115.01038314 38.39194285 -124.36697507 38.38189721 C-143.61764562 38.36097437 -162.8682668 38.32578057 -182.11889648 38.28125 C-181.78889648 37.29125 -181.45889648 36.30125 -181.11889648 35.28125 C-130.62889648 35.28125 -80.13889648 35.28125 -28.11889648 35.28125 C-28.11889648 28.68125 -28.11889648 22.08125 -28.11889648 15.28125 C-26.88938829 6.67469262 -26.88938829 6.67469262 -23.11889648 3.28125 C-15.49762188 -0.12417453 -8.1850224 -0.11715116 0 0 Z " fill="#101F36" transform="translate(738.118896484375,667.71875)"/>
<path d="M0 0 C0.33 0 0.66 0 1 0 C1.11477344 10.08750357 1.22667336 20.17503547 1.3362236 30.26259708 C1.39223161 35.40741163 1.44926492 40.55221126 1.50839233 45.69699097 C1.80382088 71.44951334 2.02753023 97.20095461 2.1227209 122.95494688 C2.14197241 128.10253944 2.1647166 133.25010712 2.18977356 138.39767456 C2.19328561 139.12234834 2.19679767 139.84702212 2.20041615 140.59365571 C2.21463346 143.51332152 2.22895562 146.4329867 2.2436949 149.35264993 C2.28742954 158.03623482 2.3189086 166.71966312 2.33079529 175.40335184 C2.34037379 181.56581371 2.37045647 187.72802576 2.40768814 193.89037895 C2.41965013 196.44469342 2.42464988 198.99905098 2.42232895 201.55339241 C2.4200042 205.06142881 2.44202558 208.56850915 2.4699707 212.07641602 C2.4633715 213.10268852 2.45677229 214.12896103 2.44997311 215.1863327 C2.52771794 221.09741339 3.13649642 224.44820465 7 229 C4.11192917 228.70123405 3.17944953 228.2193272 1.3125 225.9375 C-1.44094039 219.77503818 -1.14585595 212.7920084 -1.12698364 206.14389038 C-1.12854363 205.28782593 -1.13010362 204.43176149 -1.13171089 203.54975569 C-1.13567834 200.70030755 -1.13254783 197.85091332 -1.12939453 195.00146484 C-1.13075044 192.9509325 -1.13253144 190.90040041 -1.13470459 188.84986877 C-1.13925578 183.29432561 -1.13749902 177.73880106 -1.1343255 172.18325758 C-1.13179064 166.36579304 -1.13414252 160.54833008 -1.13571167 154.73086548 C-1.13752978 144.96445429 -1.13513614 135.19805067 -1.13037109 125.43164062 C-1.12492612 114.1412789 -1.12669429 102.85093523 -1.1321975 91.56057394 C-1.13673519 81.86273302 -1.13737605 72.16489755 -1.13475883 62.46705592 C-1.13320007 56.67663631 -1.13299141 50.88622519 -1.13629532 45.09580612 C-1.13918364 39.65392906 -1.1371806 34.21207528 -1.13140106 28.77020073 C-1.13007877 26.77314353 -1.1304586 24.77608436 -1.13266373 22.77902794 C-1.13539594 20.05337293 -1.13196871 17.32779258 -1.12698364 14.60214233 C-1.12921436 13.81186815 -1.13144509 13.02159396 -1.13374341 12.20737207 C-1.11893256 8.03265924 -0.81839587 4.09538638 0 0 Z " fill="#182B45" transform="translate(484,545)"/>
<path d="M0 0 C12.85983832 3.18009017 22.69311 9.86850891 33 18 C33.68964844 18.53367187 34.37929688 19.06734375 35.08984375 19.6171875 C36.43872859 20.68994768 37.72954639 21.83541753 39 23 C39 23.66 39 24.32 39 25 C39.87011719 25.38285156 39.87011719 25.38285156 40.7578125 25.7734375 C43.21347307 27.11677795 44.87607402 28.67424091 46.875 30.625 C49.38742903 32.83148749 50.75291434 33.92793335 54 34.875 C62.9560639 32.2628147 70.4828091 21.55744474 76.81640625 15.05664062 C77.58597656 14.27611328 78.35554687 13.49558594 79.1484375 12.69140625 C79.84114746 11.98185791 80.53385742 11.27230957 81.24755859 10.54125977 C83 9 83 9 85 9 C83.42337362 12.80492499 81.02308287 15.23518106 78.1328125 18.1328125 C77.6568161 18.61072235 77.1808197 19.0886322 76.69039917 19.58102417 C75.68586791 20.58691227 74.67882312 21.59029575 73.66943359 22.59130859 C72.13012555 24.1199101 70.60177303 25.65888159 69.07421875 27.19921875 C68.0943906 28.17772522 67.11394218 29.15561106 66.1328125 30.1328125 C64.80080811 31.46143311 64.80080811 31.46143311 63.44189453 32.81689453 C60.19770582 35.71726801 58.01958227 36.82353384 53.75 37.5625 C48.25987948 36.73898192 45.86079531 33.82212291 42 30 C30.37956142 18.66689123 18.48195921 9.46203646 3.4140625 3.15625 C1 2 1 2 0 0 Z " fill="#101F34" transform="translate(449,303)"/>
<path d="M0 0 C0.66 0 1.32 0 2 0 C2.15415927 10.8139912 2.30233719 21.62804645 2.4429636 32.4422226 C2.50845414 37.46413142 2.5759738 42.48599558 2.64819336 47.5078125 C2.71786492 52.35771728 2.7821245 57.20766681 2.84269524 62.05769348 C2.86669716 63.90438929 2.89262088 65.7510612 2.92053413 67.59770203 C2.95941519 70.19204984 2.99134783 72.78639995 3.02172852 75.38085938 C3.03467453 76.1375592 3.04762054 76.89425903 3.06095886 77.67388916 C3.19787323 91.63445344 3.19787323 91.63445344 -2 97 C-2.99 96.67 -3.98 96.34 -5 96 C-4.35125916 95.52355042 -3.70251831 95.04710083 -3.03411865 94.55621338 C-0.08040494 90.84437361 -0.42663058 87.72000157 -0.45410156 83.10058594 C-0.43859505 81.75371704 -0.43859505 81.75371704 -0.42277527 80.37963867 C-0.39329851 77.41436878 -0.39184706 74.44978002 -0.390625 71.484375 C-0.37564666 69.42741592 -0.35892025 67.37046887 -0.34051514 65.3135376 C-0.2967907 59.90156509 -0.27683117 54.48975481 -0.26177979 49.07763672 C-0.24222713 43.55426418 -0.20025503 38.03106733 -0.16015625 32.5078125 C-0.08479889 21.67192912 -0.03454082 10.83608496 0 0 Z " fill="#010614" transform="translate(775,677)"/>
<path d="M0 0 C5.23266731 0.81284152 9.97810024 2.84996603 14.85351562 4.828125 C21.16346076 7.2917208 27.18951248 8.21282774 34 8 C34 8.33 34 8.66 34 9 C37.42573937 9.77528479 40.57239245 10.11918778 44.08203125 10.09765625 C45.01337891 10.09443359 45.94472656 10.09121094 46.90429688 10.08789062 C47.86400391 10.07951172 48.82371094 10.07113281 49.8125 10.0625 C50.79154297 10.05798828 51.77058594 10.05347656 52.77929688 10.04882812 C55.18626111 10.03708684 57.59309857 10.02066419 60 10 C60.33 9.34 60.66 8.68 61 8 C63.68359282 7.5687083 66.29892103 7.2521007 69 7 C70.6669223 6.81478641 72.33359861 6.6273432 74 6.4375 C75.33327236 6.2911103 76.66658348 6.14507078 78 6 C77.67 6.66 77.34 7.32 77 8 C74.47479647 8.78819663 72.00669257 9.45649314 69.4375 10.0625 C68.74591797 10.23587891 68.05433594 10.40925781 67.34179688 10.58789062 C48.64423834 15.1359454 29.13523058 13.66950828 11.125 7.0625 C10.46508057 6.82192871 9.80516113 6.58135742 9.12524414 6.33349609 C5.28806971 4.82150188 2.68929321 3.12849938 0 0 Z " fill="#0D1D35" transform="translate(368,480)"/>
<path d="M0 0 C6.78951996 0.40436199 11.93395757 3.14844184 17.875 6.3125 C19.39867187 7.11892944 19.39867187 7.11892944 20.953125 7.94165039 C37.18757403 16.7118821 52.02021569 27.8586316 65 41 C64.67 41.99 64.34 42.98 64 44 C63.47535156 43.42894531 62.95070313 42.85789062 62.41015625 42.26953125 C47.43400152 26.59565217 29.33773694 15.34911798 9.95068359 5.95117188 C6.62049395 4.32733973 3.31161637 2.66132142 0 1 C0 0.67 0 0.34 0 0 Z " fill="#0F1F37" transform="translate(477,240)"/>
<path d="M0 0 C0.226875 0.556875 0.45375 1.11375 0.6875 1.6875 C2.52416006 4.9235201 4.0043881 6.70361415 7 9 C10.74895281 9.73194026 14.44093912 9.65310252 18.25 9.59375 C19.34086914 9.59379028 20.43173828 9.59383057 21.55566406 9.59387207 C23.85878266 9.5885179 26.16190085 9.57093979 28.46484375 9.54199219 C31.98754795 9.50014791 35.50833923 9.50092413 39.03125 9.5078125 C41.2708466 9.4973194 43.51043336 9.48438065 45.75 9.46875 C47.3282959 9.46844788 47.3282959 9.46844788 48.93847656 9.46813965 C55.95846619 9.39119061 55.95846619 9.39119061 62 6 C61.75 7.875 61.75 7.875 61 10 C54.29104308 14.17689248 44.86049462 13.15278193 37.23046875 13.01953125 C36.34643875 13.00540695 35.46240875 12.99128265 34.55158997 12.97673035 C32.70205359 12.94390391 30.85257586 12.90759971 29.00317383 12.86791992 C26.17721474 12.81229756 23.35173992 12.78400295 20.52539062 12.75585938 C18.7187162 12.7204336 16.91207277 12.68338173 15.10546875 12.64453125 C14.26582077 12.64016556 13.42617279 12.63579987 12.56108093 12.63130188 C7.47119433 12.48312284 4.68120982 11.84982861 1 8 C-0.35439668 5.29120665 -0.06501451 2.99066732 0 0 Z " fill="#09162C" transform="translate(712,535)"/>
<path d="M0 0 C0.33 0 0.66 0 1 0 C1.01458252 1.07668945 1.02916504 2.15337891 1.04418945 3.26269531 C1.20198457 29.50972989 1.20198457 29.50972989 4.37890625 55.5078125 C4.90178256 58.44775852 5.13292637 61.02938456 5 64 C4.34 64 3.68 64 3 64 C-0.79863333 49.36508676 -1.37614367 35.2254271 -1.3125 20.1875 C-1.30968018 19.25011993 -1.30686035 18.31273987 -1.30395508 17.34695435 C-1.2915123 14.66210267 -1.26834451 11.9776769 -1.23828125 9.29296875 C-1.23073318 8.47100006 -1.22318512 7.64903137 -1.21540833 6.80215454 C-1.1194342 1.1194342 -1.1194342 1.1194342 0 0 Z " fill="#0D1B30" transform="translate(249,375)"/>
<path d="M0 0 C0.99 0.33 1.98 0.66 3 1 C2.34515625 1.65742188 1.6903125 2.31484375 1.015625 2.9921875 C-13.33298902 17.94879364 -23.97752746 35.94662772 -32 55 C-33.21490788 51.54700097 -32.83175397 49.85877167 -31.296875 46.578125 C-30.89936035 45.72549072 -30.5018457 44.87285645 -30.09228516 43.99438477 C-29.64933105 43.08873779 -29.20637695 42.18309082 -28.75 41.25 C-28.29544434 40.312771 -27.84088867 39.37554199 -27.37255859 38.40991211 C-20.21125293 24.02482617 -10.67575984 11.92405985 0 0 Z " fill="#0F1D31" transform="translate(293,278)"/>
<path d="M0 0 C0.495 0.99 0.495 0.99 1 2 C-16.82 2 -34.64 2 -53 2 C-53 1.34 -53 0.68 -53 0 C-35.71638524 -2.19907191 -17.2141267 -3.53292683 0 0 Z " fill="#11233D" transform="translate(440,228)"/>
<path d="M0 0 C3.82088654 1.55470556 6.01962032 3.94727399 8.8125 6.9375 C19.57477934 18.04178924 32.85193612 26.03514133 46 34 C42.59964132 35.136846 42.18119291 35.08790973 38.70703125 33.40234375 C37.39821191 32.59779034 36.10065945 31.77473324 34.8125 30.9375 C34.11632568 30.492854 33.42015137 30.04820801 32.70288086 29.59008789 C21.14149564 22.0111153 8.81965254 12.75444811 0 2 C0 1.34 0 0.68 0 0 Z " fill="#101E34" transform="translate(292,509)"/>
<path d="M0 0 C3.28192754 3.00783249 5.35689359 6.08364345 7.5625 9.9375 C14.58039141 21.65841118 23.07512199 30.63511207 34.03125 38.7578125 C36.23293389 40.42066322 38.14807481 41.97611033 40 44 C31.4401563 44 22.21204868 32.76729528 16.43774414 27.00390625 C8.99873188 19.25912864 3.10307397 10.34883044 0 0 Z " fill="#0F2039" transform="translate(327,435)"/>
<path d="M0 0 C1.175625 0.10828125 1.175625 0.10828125 2.375 0.21875 C17.55476568 1.39649044 32.78584754 1.08996724 48 1 C43.57039363 3.95307092 39.49621896 4.12046239 34.26171875 4.31640625 C33.19501953 4.35830078 32.12832031 4.40019531 31.02929688 4.44335938 C29.37510742 4.50233398 29.37510742 4.50233398 27.6875 4.5625 C26.56537109 4.60568359 25.44324219 4.64886719 24.28710938 4.69335938 C21.52485431 4.79914787 18.7625137 4.90123672 16 5 C16 4.34 16 3.68 16 3 C15.34773438 3.01160156 14.69546875 3.02320313 14.0234375 3.03515625 C9.2238086 3.08470994 4.72215315 2.99413751 0 2 C0 1.34 0 0.68 0 0 Z " fill="#16253C" transform="translate(384,559)"/>
<path d="M0 0 C9.24 0 18.48 0 28 0 C28 0.33 28 0.66 28 1 C35.92 1.33 43.84 1.66 52 2 C52 2.33 52 2.66 52 3 C34.51 3 17.02 3 -1 3 C-0.67 2.01 -0.34 1.02 0 0 Z " fill="#10223E" transform="translate(557,703)"/>
<path d="M0 0 C0.53625 0.2475 1.0725 0.495 1.625 0.75 C0.22701172 1.65878906 0.22701172 1.65878906 -1.19921875 2.5859375 C-9.9001901 8.28780176 -18.19301678 14.33232583 -26.375 20.75 C-29.03133964 22.76432402 -31.70173507 24.75815554 -34.375 26.75 C-34.375 23.75 -34.375 23.75 -32.94580078 22.16088867 C-27.86824031 17.89571309 -22.65464584 13.90408216 -17.25 10.0625 C-16.47785156 9.50755859 -15.70570313 8.95261719 -14.91015625 8.38085938 C-13.41594297 7.3104732 -11.91711369 6.24649258 -10.41308594 5.18994141 C-9.13752265 4.28873486 -7.87299339 3.37146291 -6.62597656 2.43115234 C-2.88763546 -0.30396163 -2.88763546 -0.30396163 0 0 Z " fill="#0F1F35" transform="translate(333.375,248.25)"/>
<path d="M0 0 C0 0.33 0 0.66 0 1 C-0.91289795 1.05534912 -1.8257959 1.11069824 -2.76635742 1.16772461 C-6.16774182 1.375593 -9.56890629 1.58654472 -12.9699707 1.79956055 C-14.43929582 1.89095862 -15.90869697 1.98114315 -17.37817383 2.07006836 C-19.49581942 2.19843225 -21.61314916 2.33122262 -23.73046875 2.46484375 C-25.00301514 2.543396 -26.27556152 2.62194824 -27.58666992 2.70288086 C-30.47508481 2.95430786 -33.17264202 3.38854278 -36 4 C-37.43628457 4.06266512 -38.8750555 4.08686347 -40.3125 4.0625 C-42.1378125 4.0315625 -42.1378125 4.0315625 -44 4 C-41.13346326 1.13346326 -37.86180698 1.00599312 -34 0.375 C-33.20561523 0.24383789 -32.41123047 0.11267578 -31.59277344 -0.02246094 C-21.2135143 -1.59383914 -10.33970789 -2.01591789 0 0 Z " fill="#0D1B32" transform="translate(431,298)"/>
<path d="M0 0 C0.66 0 1.32 0 2 0 C0.56274535 4.01111374 -1.40142008 7.26687256 -3.75 10.8125 C-8.41940323 18.08113296 -11.2388377 25.85247941 -14 34 C-14.66 34 -15.32 34 -16 34 C-15.47486529 28.27603169 -13.87548209 23.83942569 -11.375 18.6875 C-11.02034668 17.94636963 -10.66569336 17.20523926 -10.30029297 16.44165039 C-7.45239133 10.63114525 -4.37939639 4.81733603 0 0 Z " fill="#0F1C31" transform="translate(339,333)"/>
<path d="M0 0 C0.99 0.33 1.98 0.66 3 1 C-18.37549407 17 -18.37549407 17 -26 17 C-26 16.34 -26 15.68 -26 15 C-24.96101563 14.50371094 -23.92203125 14.00742187 -22.8515625 13.49609375 C-15.40755059 9.8861991 -8.45697751 6.29576372 -1.91796875 1.15234375 C-1.28503906 0.77207031 -0.65210938 0.39179688 0 0 Z " fill="#102137" transform="translate(473,469)"/>
<path d="M0 0 C3.82352069 3.48245547 6.5176516 7.483447 9.375 11.75 C13.12032122 17.27586329 16.92302707 22.71095404 21 28 C13.20208424 24.62606736 8.48786319 16.52061474 4 9.625 C3.60208252 9.01817383 3.20416504 8.41134766 2.79418945 7.78613281 C0 3.37509824 0 3.37509824 0 0 Z " fill="#0C1729" transform="translate(271,480)"/>
<path d="M0 0 C0.226875 0.556875 0.45375 1.11375 0.6875 1.6875 C2.95600449 5.68438886 5.61899946 8.53966649 10 10 C12.43780377 10.15269181 14.85283901 10.25682697 17.29296875 10.31640625 C18.35201164 10.3475779 18.35201164 10.3475779 19.43244934 10.37937927 C21.68403551 10.44467491 23.93573662 10.50366647 26.1875 10.5625 C27.7155066 10.60570425 29.24350164 10.64931916 30.77148438 10.69335938 C34.51420562 10.80033574 38.2570423 10.90165922 42 11 C42 11.33 42 11.66 42 12 C36.96465764 12.0990984 31.92988658 12.1715758 26.89379883 12.21972656 C25.18178414 12.23980505 23.46983772 12.26707392 21.75805664 12.30175781 C19.29295992 12.35044401 16.8287721 12.37300573 14.36328125 12.390625 C13.22080681 12.42159271 13.22080681 12.42159271 12.05525208 12.45318604 C8.31508391 12.45475467 6.21902502 12.14053729 3.03979492 10.10058594 C0.42548631 7.40836435 0.0132319 6.66159506 -0.0625 2.875 C-0.041875 1.92625 -0.02125 0.9775 0 0 Z " fill="#01020C" transform="translate(712,535)"/>
<path d="M0 0 C0.33 0.99 0.66 1.98 1 3 C-1 5 -1 5 -4.44921875 5.23046875 C-5.86204612 5.22647395 -7.27487429 5.21170188 -8.6875 5.1875 C-9.38294922 5.18685547 -10.07839844 5.18621094 -10.79492188 5.18554688 C-15.28507958 5.14781446 -19.56934934 4.7258602 -24 4 C-20.83787269 1.89191512 -20.20456912 1.76667199 -16.62109375 1.875 C-15.36329102 1.89820313 -15.36329102 1.89820313 -14.08007812 1.921875 C-12.77200195 1.96054687 -12.77200195 1.96054687 -11.4375 2 C-9.707279 2.0509263 -7.9767687 2.09302448 -6.24609375 2.125 C-5.09645142 2.15980469 -5.09645142 2.15980469 -3.92358398 2.1953125 C-1.75886894 2.18024255 -1.75886894 2.18024255 0 0 Z " fill="#0F1E35" transform="translate(712,701)"/>
<path d="M0 0 C0 0.66 0 1.32 0 2 C-1.64087874 3.29074548 -3.34018552 4.50761027 -5.0625 5.6875 C-13.14720365 11.27620769 -13.14720365 11.27620769 -19 19 C-19.99 18.67 -20.98 18.34 -22 18 C-7.06147541 0 -7.06147541 0 0 0 Z " fill="#0F1C32" transform="translate(363,313)"/>
<path d="M0 0 C7.19872326 5.12216847 13.56439479 10.97198312 20 17 C19.67 17.99 19.34 18.98 19 20 C18.38253906 19.35933594 17.76507812 18.71867187 17.12890625 18.05859375 C12.22599107 13.05120245 7.35243873 8.5111463 1.6171875 4.47265625 C1.08351563 3.98667969 0.54984375 3.50070312 0 3 C0 2.01 0 1.02 0 0 Z " fill="#13233A" transform="translate(522,264)"/>
<path d="M0 0 C0.66 0.33 1.32 0.66 2 1 C-6.01632664 6.54976459 -15.0390654 10.90553951 -25 10 C-22.44979397 8.29986265 -20.75125401 7.47175402 -17.91015625 6.5625 C-17.12576172 6.30726563 -16.34136719 6.05203125 -15.53320312 5.7890625 C-14.71787109 5.52867187 -13.90253906 5.26828125 -13.0625 5 C-11.44830032 4.48202012 -9.83498475 3.9612753 -8.22265625 3.4375 C-7.50859619 3.20933594 -6.79453613 2.98117187 -6.05883789 2.74609375 C-3.94060877 2.03514578 -3.94060877 2.03514578 -1.86108398 0.84765625 C-1.24692627 0.56792969 -0.63276855 0.28820312 0 0 Z " fill="#101E34" transform="translate(475,547)"/>
<path d="M0 0 C0.33 0 0.66 0 1 0 C1.0093457 0.8470752 1.01869141 1.69415039 1.02832031 2.56689453 C1.07252612 5.73194352 1.13422527 8.89604812 1.20751953 12.06054688 C1.23561623 13.42598164 1.25688677 14.79157564 1.27099609 16.15722656 C1.29257982 18.12854038 1.3413546 20.09949631 1.390625 22.0703125 C1.41157227 23.25383301 1.43251953 24.43735352 1.45410156 25.65673828 C2.09880227 29.60509761 3.59218297 31.8497028 6 35 C4.1875 34.8125 4.1875 34.8125 2 34 C-0.70024001 30.49968887 -1.49416388 27.35019062 -2 23 C-1.34 23 -0.68 23 0 23 C0 15.41 0 7.82 0 0 Z " fill="#0A2448" transform="translate(485,739)"/>
<path d="M0 0 C0.33 0 0.66 0 1 0 C1.05789006 3.45826342 1.09355821 6.91640293 1.125 10.375 C1.14175781 11.35984375 1.15851562 12.3446875 1.17578125 13.359375 C1.18222656 14.30039062 1.18867187 15.24140625 1.1953125 16.2109375 C1.20578613 17.08024902 1.21625977 17.94956055 1.22705078 18.84521484 C1 21 1 21 -1 23 C-2.32830231 15.62054275 -1.90723516 8.42924795 -1 1 C-0.67 0.67 -0.34 0.34 0 0 Z " fill="#091324" transform="translate(712,512)"/>
<path d="M0 0 C-0.33 0.66 -0.66 1.32 -1 2 C-3.52747053 2.84249018 -5.98375629 3.54686143 -8.5625 4.1875 C-9.59987305 4.47270508 -9.59987305 4.47270508 -10.65820312 4.76367188 C-15.78917217 6.05956434 -19.79036491 5.92003679 -25 5 C-25 4.67 -25 4.34 -25 4 C-22.69 4 -20.38 4 -18 4 C-17.67 3.34 -17.34 2.68 -17 2 C-15.00216239 1.70523707 -13.0017013 1.41898625 -10.9921875 1.21875 C-8.94930776 1.04209833 -8.94930776 1.04209833 -6.8125 0.4375 C-4.5126509 -0.11763599 -2.35611782 -0.06544772 0 0 Z " fill="#132640" transform="translate(446,486)"/>
<path d="M0 0 C-3.12920761 2.57256972 -6.25611109 4.09936527 -10 5.625 C-11.03125 6.05039063 -12.0625 6.47578125 -13.125 6.9140625 C-15.42273507 7.781957 -17.60533418 8.48192326 -20 9 C-20 8.34 -20 7.68 -20 7 C-17.60945893 5.8212678 -15.21354785 4.65697003 -12.8125 3.5 C-12.13896484 3.16613281 -11.46542969 2.83226562 -10.77148438 2.48828125 C-7.03696471 0.70299868 -4.24205451 -0.46127195 0 0 Z " fill="#101F34" transform="translate(357,238)"/>
<path d="M0 0 C1.9375 0.5625 1.9375 0.5625 4 2 C5.17592808 6.07655066 5.22576411 8.35835463 3.8125 12.375 C2 15 2 15 -0.1875 15.875 C-1.0846875 15.936875 -1.0846875 15.936875 -2 16 C-1.505 15.525625 -1.01 15.05125 -0.5 14.5625 C1.69189114 10.81801931 1.4068872 7.24884138 1 3 C0.67 2.01 0.34 1.02 0 0 Z " fill="#132237" transform="translate(545,287)"/>
<path d="M0 0 C5.28 0.33 10.56 0.66 16 1 C16 1.66 16 2.32 16 3 C10.55306686 3.09688221 5.36095333 3.12862175 0 2 C0 1.34 0 0.68 0 0 Z " fill="#102036" transform="translate(384,559)"/>
<path d="M0 0 C0.99 0.495 0.99 0.495 2 1 C2.80045663 3.69058598 3.4954659 6.33218727 4.125 9.0625 C4.30675781 9.82111328 4.48851562 10.57972656 4.67578125 11.36132812 C5.12456584 13.23913735 5.56323336 15.11935915 6 17 C5.34 17.33 4.68 17.66 4 18 C3.32451422 15.94037148 2.65995688 13.87715678 2 11.8125 C1.62875 10.66394531 1.2575 9.51539063 0.875 8.33203125 C0.09369447 5.35679188 -0.18363306 3.04716104 0 0 Z " fill="#0E1B30" transform="translate(321,415)"/>
<path d="M0 0 C0.66 0.33 1.32 0.66 2 1 C0.89718873 2.27200971 -0.20730769 3.54255853 -1.3125 4.8125 C-1.92738281 5.52019531 -2.54226563 6.22789062 -3.17578125 6.95703125 C-4.73334335 8.70136739 -6.32658875 10.36778041 -8 12 C-8.66 11.67 -9.32 11.34 -10 11 C-8.52116808 9.35386588 -7.04192523 7.70810092 -5.5625 6.0625 C-4.73878906 5.14597656 -3.91507812 4.22945313 -3.06640625 3.28515625 C-1 1 -1 1 0 0 Z " fill="#0A192F" transform="translate(488,455)"/>
<path d="M0 0 C4.09568647 3.4889181 6.99454088 8.02756026 9 13 C8.67 13.99 8.34 14.98 8 16 C6.66141476 13.71125827 5.32898986 11.41930344 4 9.125 C3.6184375 8.47402344 3.236875 7.82304687 2.84375 7.15234375 C0 2.2265625 0 2.2265625 0 0 Z " fill="#0B172A" transform="translate(327,435)"/>
<path d="M0 0 C0.66 0.33 1.32 0.66 2 1 C1.61271765 6.71241466 1.12989477 9.73688282 -3 14 C-3.99 13.67 -4.98 13.34 -6 13 C-5.38125 12.525625 -4.7625 12.05125 -4.125 11.5625 C-1.1889379 8.02195453 -0.72455289 4.46172044 0 0 Z " fill="#0C1625" transform="translate(776,760)"/>
<path d="M0 0 C0.99 0.33 1.98 0.66 3 1 C1.59627198 2.20276695 0.17647903 3.38680519 -1.25 4.5625 C-2.43335938 5.55443359 -2.43335938 5.55443359 -3.640625 6.56640625 C-6 8 -6 8 -8.296875 7.71484375 C-8.85890625 7.47894531 -9.4209375 7.24304688 -10 7 C-8.4050992 5.80008401 -6.79873853 4.61538682 -5.1875 3.4375 C-3.84751953 2.44556641 -3.84751953 2.44556641 -2.48046875 1.43359375 C-1.66191406 0.96050781 -0.84335937 0.48742187 0 0 Z " fill="#10223A" transform="translate(473,469)"/>
<path d="M0 0 C3.88975419 3.59054233 6.89732195 7.73898882 10 12 C6.52556925 11.43351673 5.01266113 10.35584027 2.75 7.6875 C2.22921875 7.09324219 1.7084375 6.49898438 1.171875 5.88671875 C0 4 0 4 0 0 Z " fill="#12243D" transform="translate(336,449)"/>
<path d="M0 0 C0.99 0.33 1.98 0.66 3 1 C-1.51350747 4.52273754 -4.28341664 5.45732667 -10 5 C-10.33 4.01 -10.66 3.02 -11 2 C-9.01432292 2.06510417 -7.02864583 2.13020833 -5.04296875 2.1953125 C-2.68640281 2.13254462 -2.68640281 2.13254462 0 0 Z " fill="#162539" transform="translate(509,335)"/>
<path d="M0 0 C0.99 0 1.98 0 3 0 C3.66 3.63 4.32 7.26 5 11 C4.01 11 3.02 11 2 11 C0.80712589 7.12315913 0 4.08378077 0 0 Z " fill="#0E213A" transform="translate(256,447)"/>
<path d="M0 0 C9.59453303 2.89066059 9.59453303 2.89066059 13 6 C8.73052871 5.49770926 4.83163192 5.02851102 1 3 C0.67 2.01 0.34 1.02 0 0 Z " fill="#0E1D32" transform="translate(339,544)"/>
<path d="M0 0 C0.226875 0.556875 0.45375 1.11375 0.6875 1.6875 C1.98476448 4.21191217 1.98476448 4.21191217 4.5625 6.5625 C7 9 7 9 8 12 C4.12812449 10.74425659 1.93162483 9.65992073 0 6 C-0.1875 2.75 -0.1875 2.75 0 0 Z " fill="#0E192C" transform="translate(712,535)"/>
<path d="M0 0 C0.33 0 0.66 0 1 0 C0.67 4.29 0.34 8.58 0 13 C-0.66 13 -1.32 13 -2 13 C-2.19294408 8.17639811 -1.75747614 4.50353262 0 0 Z " fill="#111F32" transform="translate(322,368)"/>
<path d="M0 0 C0 0.33 0 0.66 0 1 C-6.43255401 1.12086218 -12.61773055 0.82351864 -19 0 C-19 -0.33 -19 -0.66 -19 -1 C-12.13252891 -2.10765663 -6.73281213 -1.700773 0 0 Z " fill="#172B46" transform="translate(441,300)"/>
<path d="M0 0 C3.22695803 1.61347901 3.66223315 4.76706344 5 8 C5.99 9.485 5.99 9.485 7 11 C5.1875 10.8125 5.1875 10.8125 3 10 C0.37665094 6.62712264 -0.36372697 4.24348127 0 0 Z " fill="#0E1728" transform="translate(484,763)"/>
<path d="M0 0 C5.03985731 0.44469329 7.37634988 2.71343362 11 6 C10.67 6.66 10.34 7.32 10 8 C8.33055479 6.85821872 6.6645052 5.71147095 5 4.5625 C4.071875 3.92441406 3.14375 3.28632813 2.1875 2.62890625 C1.465625 2.09136719 0.74375 1.55382812 0 1 C0 0.67 0 0.34 0 0 Z " fill="#0C182C" transform="translate(511,258)"/>
<path d="M0 0 C0 0.66 0 1.32 0 2 C-2.99480917 2.8723412 -5.63575911 3.10829766 -8.75 3.0625 C-9.54921875 3.05347656 -10.3484375 3.04445313 -11.171875 3.03515625 C-11.77515625 3.02355469 -12.3784375 3.01195312 -13 3 C-8.49192825 0.69441653 -5.09714099 -0.14158725 0 0 Z " fill="#0B182D" transform="translate(449,557)"/>
<path d="M0 0 C1.32 0.33 2.64 0.66 4 1 C-0.455 3.97 -0.455 3.97 -5 7 C-5.66 6.67 -6.32 6.34 -7 6 C-4.74259377 3.66475218 -2.7194239 1.81294927 0 0 Z " fill="#0D1A2D" transform="translate(331,248)"/>
<path d="M0 0 C2.31 0.66 4.62 1.32 7 2 C7 3.66666667 7 5.33333333 7 7 C3.94917061 5.98305687 3.09627325 5.27855788 1 3 C0.34 2.34 -0.32 1.68 -1 1 C-0.67 0.67 -0.34 0.34 0 0 Z " fill="#142337" transform="translate(769,670)"/>
<path d="M0 0 C3.94139078 1.66751148 6.7892812 4.22710649 10 7 C9.67 7.99 9.34 8.98 9 10 C7.49702124 8.52386015 5.99768715 7.04400843 4.5 5.5625 C3.6646875 4.73878906 2.829375 3.91507812 1.96875 3.06640625 C0 1 0 1 0 0 Z " fill="#0C182C" transform="translate(344,461)"/>
<path d="M0 0 C0 0.99 0 1.98 0 3 C-3.47325181 4.1577506 -6.36067448 4.06866652 -10 4 C-6.71536341 1.81024227 -3.79303725 1.00193437 0 0 Z " fill="#0C182C" transform="translate(460,553)"/>
<path d="M0 0 C3.71888239 0.50712033 6.73454239 1.11608215 10 3 C10 3.66 10 4.32 10 5 C6.33118845 4.29445932 3.29549466 2.72264494 0 1 C0 0.67 0 0.34 0 0 Z " fill="#0C192E" transform="translate(486,244)"/>
<path d="M0 0 C2.5625 2.25 2.5625 2.25 5 5 C4.8125 7.3125 4.8125 7.3125 4 9 C0 4.5 0 4.5 0 0 Z " fill="#112037" transform="translate(277,489)"/>
<path d="M0 0 C2.64465038 3.1254959 3.84414715 6.08788267 5 10 C2 9 2 9 0.8125 6.6875 C0 4 0 4 0 0 Z " fill="#0D1828" transform="translate(261,460)"/>
<path d="M0 0 C0.66 0.33 1.32 0.66 2 1 C-0.97 4.96 -0.97 4.96 -4 9 C-4.33 8.01 -4.66 7.02 -5 6 C-3.59554165 3.7363436 -1.8032087 1.9791315 0 0 Z " fill="#0D192C" transform="translate(496,445)"/>
<path d="M0 0 C6.625 0.75 6.625 0.75 10 3 C3.375 3.125 3.375 3.125 0 2 C0 1.34 0 0.68 0 0 Z " fill="#0D192D" transform="translate(364,554)"/>
<path d="M0 0 C3.3 0.99 6.6 1.98 10 3 C10 3.33 10 3.66 10 4 C7.25 4.25 7.25 4.25 4 4 C1.625 2 1.625 2 0 0 Z " fill="#0B162A" transform="translate(353,550)"/>
<path d="M0 0 C0.8353125 0.37125 0.8353125 0.37125 1.6875 0.75 C-3.5859375 3.97265625 -3.5859375 3.97265625 -5.3125 4.75 C-5.9725 4.42 -6.6325 4.09 -7.3125 3.75 C-2.88173077 -0.31153846 -2.88173077 -0.31153846 0 0 Z " fill="#0A172C" transform="translate(463.3125,477.25)"/>
<path d="M0 0 C2.31 0.33 4.62 0.66 7 1 C7.33 1.99 7.66 2.98 8 4 C5.64828869 3.40138258 3.3140622 2.73075648 1 2 C0.67 1.34 0.34 0.68 0 0 Z " fill="#0E1C32" transform="translate(467,236)"/>
<path d="M0 0 C4 1 4 1 4 1 Z " fill="#27456D" transform="translate(437,303)"/>
<path d="M0 0 C0.99 0.33 1.98 0.66 3 1 C2.01 1 1.02 1 0 1 C0 0.67 0 0.34 0 0 Z " fill="#254369" transform="translate(485,240)"/>
<path d="M0 0 C0.66 0 1.32 0 2 0 C1.67 0.66 1.34 1.32 1 2 C0.67 1.34 0.34 0.68 0 0 Z " fill="#2F486A" transform="translate(481,765)"/>
<path d="M0 0 C0.99 0.495 0.99 0.495 2 1 C1.01 1.495 1.01 1.495 0 2 C0 1.34 0 0.68 0 0 Z " fill="#2A486D" transform="translate(480,680)"/>
<path d="M0 0 C3 1 3 1 3 1 Z " fill="#2A486C" transform="translate(720,667)"/>
<path d="M0 0 C3 1 3 1 3 1 Z " fill="#2D486A" transform="translate(392,563)"/>
<path d="M0 0 C3 1 3 1 3 1 Z " fill="#28466D" transform="translate(401,301)"/>
<path d="M0 0 C3 1 3 1 3 1 Z " fill="#28476C" transform="translate(304,264)"/>
<path d="" fill="#2D4A6B" transform="translate(0,0)"/>
<path d="" fill="#2C496D" transform="translate(0,0)"/>
<path d="" fill="#29486C" transform="translate(0,0)"/>
<path d="" fill="#294A70" transform="translate(0,0)"/>
<path d="M0 0 C2 1 2 1 2 1 Z " fill="#2A4A6D" transform="translate(481,549)"/>
<path d="M0 0 C2 1 2 1 2 1 Z " fill="#26456C" transform="translate(424,488)"/>
<path d="M0 0 C2 1 2 1 2 1 Z " fill="#25476E" transform="translate(403,488)"/>
<path d="" fill="#26456C" transform="translate(0,0)"/>
<path d="M0 0 C2 1 2 1 2 1 Z " fill="#27446C" transform="translate(459,310)"/>
<path d="M0 0 C2 1 2 1 2 1 Z " fill="#28476E" transform="translate(424,301)"/>
<path d="M0 0 C2 1 2 1 2 1 Z " fill="#27476B" transform="translate(342,240)"/>
<path d="" fill="#2C4769" transform="translate(0,0)"/>
<path d="" fill="#4F5050" transform="translate(0,0)"/>
<path d="" fill="#2F4565" transform="translate(0,0)"/>
<path d="" fill="#314667" transform="translate(0,0)"/>
<path d="" fill="#2E4B6C" transform="translate(0,0)"/>
<path d="" fill="#2A496C" transform="translate(0,0)"/>
<path d="" fill="#2A496C" transform="translate(0,0)"/>
<path d="" fill="#2C4B6F" transform="translate(0,0)"/>
<path d="" fill="#2C486C" transform="translate(0,0)"/>
<path d="" fill="#29486E" transform="translate(0,0)"/>
<path d="" fill="#29486E" transform="translate(0,0)"/>
<path d="" fill="#284666" transform="translate(0,0)"/>
<path d="" fill="#2A4769" transform="translate(0,0)"/>
<path d="" fill="#2C496F" transform="translate(0,0)"/>
<path d="" fill="#2B4C70" transform="translate(0,0)"/>
<path d="" fill="#2B4B6E" transform="translate(0,0)"/>
<path d="" fill="#2A496E" transform="translate(0,0)"/>
<path d="" fill="#2A4970" transform="translate(0,0)"/>
<path d="" fill="#2A496F" transform="translate(0,0)"/>
<path d="" fill="#29496D" transform="translate(0,0)"/>
<path d="" fill="#2A4B70" transform="translate(0,0)"/>
<path d="" fill="#29476E" transform="translate(0,0)"/>
<path d="" fill="#2A4A6E" transform="translate(0,0)"/>
<path d="" fill="#2E4B6E" transform="translate(0,0)"/>
<path d="" fill="#29476C" transform="translate(0,0)"/>
<path d="" fill="#2A476C" transform="translate(0,0)"/>
<path d="" fill="#29476F" transform="translate(0,0)"/>
<path d="" fill="#2B496A" transform="translate(0,0)"/>
<path d="" fill="#2D496A" transform="translate(0,0)"/>
<path d="" fill="#2B476A" transform="translate(0,0)"/>
<path d="" fill="#29496D" transform="translate(0,0)"/>
<path d="" fill="#2B486B" transform="translate(0,0)"/>
<path d="" fill="#2D4D6D" transform="translate(0,0)"/>
<path d="" fill="#2E486C" transform="translate(0,0)"/>
<path d="" fill="#294A6C" transform="translate(0,0)"/>
<path d="" fill="#28446A" transform="translate(0,0)"/>
<path d="" fill="#2C4769" transform="translate(0,0)"/>
<path d="" fill="#2C496C" transform="translate(0,0)"/>
<path d="" fill="#29456C" transform="translate(0,0)"/>
<path d="" fill="#29466B" transform="translate(0,0)"/>
<path d="" fill="#2A4567" transform="translate(0,0)"/>
<path d="" fill="#294668" transform="translate(0,0)"/>
<path d="" fill="#2B4569" transform="translate(0,0)"/>
<path d="" fill="#2A4869" transform="translate(0,0)"/>
<path d="" fill="#2B4769" transform="translate(0,0)"/>
<path d="" fill="#28476C" transform="translate(0,0)"/>
<path d="" fill="#29496E" transform="translate(0,0)"/>
<path d="" fill="#2C476C" transform="translate(0,0)"/>
<path d="" fill="#28476C" transform="translate(0,0)"/>
<path d="" fill="#28456D" transform="translate(0,0)"/>
<path d="" fill="#2A486D" transform="translate(0,0)"/>
<path d="" fill="#294867" transform="translate(0,0)"/>
<path d="" fill="#2B466B" transform="translate(0,0)"/>
<path d="" fill="#304A6B" transform="translate(0,0)"/>
<path d="" fill="#2A466A" transform="translate(0,0)"/>
<path d="" fill="#26466E" transform="translate(0,0)"/>
<path d="" fill="#2C496D" transform="translate(0,0)"/>
<path d="" fill="#2B496C" transform="translate(0,0)"/>
<path d="" fill="#2B4B6F" transform="translate(0,0)"/>
<path d="" fill="#28456B" transform="translate(0,0)"/>
<path d="" fill="#28456E" transform="translate(0,0)"/>
<path d="" fill="#264669" transform="translate(0,0)"/>
<path d="" fill="#26446D" transform="translate(0,0)"/>
<path d="" fill="#23426B" transform="translate(0,0)"/>
<path d="" fill="#26436A" transform="translate(0,0)"/>
<path d="" fill="#29456D" transform="translate(0,0)"/>
<path d="" fill="#26476C" transform="translate(0,0)"/>
<path d="" fill="#27476E" transform="translate(0,0)"/>
<path d="" fill="#2A456B" transform="translate(0,0)"/>
<path d="" fill="#2A486D" transform="translate(0,0)"/>
<path d="" fill="#2F4869" transform="translate(0,0)"/>
<path d="" fill="#29496D" transform="translate(0,0)"/>
<path d="" fill="#28486E" transform="translate(0,0)"/>
<path d="" fill="#29496D" transform="translate(0,0)"/>
<path d="" fill="#2C496D" transform="translate(0,0)"/>
<path d="" fill="#2A476D" transform="translate(0,0)"/>
<path d="" fill="#2D4669" transform="translate(0,0)"/>
<path d="" fill="#304A6A" transform="translate(0,0)"/>
<path d="" fill="#254268" transform="translate(0,0)"/>
<path d="" fill="#28496B" transform="translate(0,0)"/>
<path d="" fill="#2A476D" transform="translate(0,0)"/>
<path d="" fill="#2B496D" transform="translate(0,0)"/>
<path d="" fill="#264164" transform="translate(0,0)"/>
<path d="" fill="#2B486D" transform="translate(0,0)"/>
</svg>
