<?xml version="1.0" encoding="UTF-8"?>
<svg xmlns="http://www.w3.org/2000/svg" xmlns:xlink="http://www.w3.org/1999/xlink" width="40px" height="40px" viewBox="0 0 40 40" version="1.1">
<g id="surface1">
<path style=" stroke:none;fill-rule:nonzero;fill:rgb(5.882353%,19.607843%,35.686275%);fill-opacity:1;" d="M 19.140625 9.53125 C 19.167969 9.542969 19.195312 9.558594 19.226562 9.570312 C 19.90625 9.90625 20.496094 10.347656 21.054688 10.859375 C 21.089844 10.890625 21.121094 10.921875 21.15625 10.953125 C 21.300781 11.089844 21.421875 11.214844 21.484375 11.40625 C 21.476562 11.574219 21.460938 11.65625 21.367188 11.796875 C 21.339844 11.796875 21.316406 11.796875 21.289062 11.796875 C 21.277344 11.835938 21.261719 11.875 21.25 11.914062 C 21.222656 11.914062 21.199219 11.914062 21.171875 11.914062 C 21.171875 11.941406 21.171875 11.964844 21.171875 11.992188 C 21.121094 12.042969 21.121094 12.042969 21.046875 12.105469 C 20.898438 12.226562 20.761719 12.359375 20.628906 12.496094 C 20.609375 12.515625 20.589844 12.535156 20.566406 12.554688 C 20.484375 12.640625 20.402344 12.726562 20.316406 12.8125 C 20.253906 12.875 20.191406 12.9375 20.132812 13 C 20.113281 13.019531 20.09375 13.039062 20.074219 13.058594 C 19.933594 13.199219 19.835938 13.269531 19.640625 13.304688 C 19.425781 13.269531 19.332031 13.15625 19.179688 13.007812 C 18.351562 12.199219 17.433594 11.734375 16.25 11.710938 C 15.242188 11.730469 14.339844 12.054688 13.605469 12.746094 C 12.878906 13.519531 12.515625 14.527344 12.539062 15.585938 C 12.601562 16.441406 12.863281 17.242188 13.4375 17.890625 C 13.453125 17.914062 13.472656 17.9375 13.488281 17.960938 C 13.921875 18.519531 14.667969 18.921875 15.351562 19.0625 C 15.472656 19.074219 15.582031 19.070312 15.703125 19.0625 C 15.703125 19.074219 15.703125 19.089844 15.703125 19.101562 C 15.835938 19.132812 15.960938 19.144531 16.097656 19.144531 C 16.152344 19.144531 16.152344 19.144531 16.207031 19.144531 C 16.246094 19.144531 16.28125 19.144531 16.320312 19.144531 C 16.359375 19.144531 16.398438 19.144531 16.4375 19.140625 C 16.53125 19.140625 16.625 19.140625 16.71875 19.140625 C 16.730469 19.113281 16.746094 19.089844 16.757812 19.0625 C 16.796875 19.058594 16.839844 19.054688 16.878906 19.050781 C 17.722656 18.960938 18.550781 18.378906 19.082031 17.742188 C 19.160156 17.644531 19.234375 17.546875 19.308594 17.449219 C 19.410156 17.308594 19.488281 17.21875 19.648438 17.148438 C 19.785156 17.132812 19.921875 17.132812 20.0625 17.132812 C 20.105469 17.132812 20.144531 17.132812 20.1875 17.132812 C 20.332031 17.132812 20.472656 17.132812 20.613281 17.132812 C 20.714844 17.132812 20.816406 17.132812 20.917969 17.132812 C 21.164062 17.132812 21.410156 17.132812 21.65625 17.132812 C 21.855469 17.132812 22.054688 17.132812 22.257812 17.132812 C 22.300781 17.132812 22.300781 17.132812 22.34375 17.132812 C 22.402344 17.132812 22.460938 17.132812 22.515625 17.132812 C 23.058594 17.128906 23.605469 17.128906 24.148438 17.132812 C 24.644531 17.132812 25.140625 17.132812 25.636719 17.128906 C 26.148438 17.128906 26.660156 17.128906 27.167969 17.128906 C 27.457031 17.128906 27.742188 17.128906 28.027344 17.128906 C 28.296875 17.128906 28.566406 17.128906 28.835938 17.128906 C 28.933594 17.128906 29.035156 17.128906 29.132812 17.128906 C 29.269531 17.128906 29.402344 17.128906 29.539062 17.128906 C 29.578125 17.128906 29.617188 17.128906 29.65625 17.128906 C 29.894531 17.128906 30.039062 17.164062 30.234375 17.304688 C 30.378906 17.46875 30.367188 17.640625 30.367188 17.847656 C 30.367188 17.902344 30.367188 17.902344 30.367188 17.953125 C 30.367188 18.070312 30.367188 18.183594 30.367188 18.296875 C 30.367188 18.378906 30.367188 18.457031 30.367188 18.539062 C 30.371094 18.703125 30.371094 18.871094 30.367188 19.039062 C 30.367188 19.253906 30.371094 19.46875 30.371094 19.683594 C 30.371094 19.847656 30.371094 20.011719 30.371094 20.175781 C 30.371094 20.253906 30.371094 20.335938 30.371094 20.414062 C 30.371094 20.523438 30.371094 20.632812 30.371094 20.746094 C 30.371094 20.792969 30.371094 20.792969 30.371094 20.84375 C 30.371094 20.996094 30.363281 21.074219 30.28125 21.207031 C 30.011719 21.460938 29.613281 21.414062 29.265625 21.40625 C 29.230469 21.40625 29.199219 21.40625 29.164062 21.40625 C 29.089844 21.402344 29.019531 21.402344 28.945312 21.402344 C 28.835938 21.398438 28.726562 21.398438 28.613281 21.398438 C 28.542969 21.394531 28.472656 21.394531 28.402344 21.390625 C 28.371094 21.390625 28.335938 21.390625 28.304688 21.390625 C 28.105469 21.386719 27.996094 21.359375 27.851562 21.210938 C 27.757812 21.070312 27.757812 20.992188 27.75 20.824219 C 27.746094 20.75 27.746094 20.75 27.738281 20.675781 C 27.734375 20.464844 27.734375 20.25 27.734375 20.039062 C 24.757812 20.019531 24.757812 20.019531 21.71875 20 C 21.738281 23.691406 21.738281 23.691406 21.757812 27.460938 C 23.730469 27.460938 25.703125 27.460938 27.734375 27.460938 C 27.734375 27.203125 27.734375 26.945312 27.734375 26.679688 C 27.78125 26.34375 27.78125 26.34375 27.929688 26.210938 C 28.226562 26.078125 28.511719 26.078125 28.832031 26.082031 C 28.917969 26.082031 29.003906 26.085938 29.089844 26.085938 C 30.003906 26.089844 30.003906 26.089844 30.3125 26.25 C 30.3125 26.289062 30.3125 26.328125 30.3125 26.367188 C 30.324219 26.394531 30.339844 26.417969 30.351562 26.445312 C 30.355469 26.546875 30.359375 26.648438 30.359375 26.75 C 30.359375 26.78125 30.359375 26.8125 30.363281 26.847656 C 30.363281 26.949219 30.363281 27.054688 30.367188 27.160156 C 30.367188 27.234375 30.367188 27.304688 30.367188 27.378906 C 30.371094 27.53125 30.371094 27.683594 30.375 27.835938 C 30.375 28.03125 30.378906 28.226562 30.378906 28.421875 C 30.382812 28.570312 30.382812 28.722656 30.386719 28.871094 C 30.386719 28.945312 30.386719 29.015625 30.390625 29.089844 C 30.390625 29.1875 30.390625 29.289062 30.390625 29.390625 C 30.394531 29.433594 30.394531 29.433594 30.394531 29.480469 C 30.398438 30.023438 30.398438 30.023438 30.261719 30.171875 C 30.117188 30.3125 30.015625 30.359375 29.8125 30.363281 C 29.777344 30.363281 29.738281 30.363281 29.699219 30.363281 C 29.660156 30.363281 29.617188 30.363281 29.578125 30.363281 C 29.53125 30.363281 29.488281 30.363281 29.445312 30.363281 C 29.296875 30.363281 29.152344 30.363281 29.003906 30.363281 C 28.898438 30.363281 28.792969 30.363281 28.6875 30.363281 C 28.433594 30.363281 28.175781 30.363281 27.921875 30.363281 C 27.710938 30.363281 27.503906 30.363281 27.296875 30.363281 C 26.707031 30.367188 26.117188 30.367188 25.527344 30.367188 C 25.496094 30.367188 25.464844 30.367188 25.429688 30.367188 C 25.382812 30.367188 25.382812 30.367188 25.332031 30.367188 C 24.816406 30.367188 24.300781 30.367188 23.785156 30.367188 C 23.253906 30.367188 22.726562 30.371094 22.195312 30.371094 C 21.898438 30.371094 21.601562 30.371094 21.304688 30.371094 C 21.050781 30.371094 20.796875 30.371094 20.542969 30.371094 C 20.414062 30.371094 20.285156 30.371094 20.15625 30.371094 C 20.015625 30.371094 19.875 30.371094 19.734375 30.371094 C 19.675781 30.371094 19.675781 30.371094 19.613281 30.371094 C 19.367188 30.371094 19.222656 30.339844 19.023438 30.195312 C 18.832031 29.964844 18.863281 29.628906 18.863281 29.339844 C 18.863281 29.308594 18.863281 29.273438 18.863281 29.238281 C 18.863281 29.128906 18.863281 29.015625 18.863281 28.90625 C 18.863281 28.824219 18.863281 28.746094 18.863281 28.664062 C 18.863281 28.449219 18.863281 28.230469 18.863281 28.015625 C 18.863281 27.785156 18.863281 27.558594 18.863281 27.332031 C 18.863281 26.949219 18.863281 26.566406 18.863281 26.1875 C 18.863281 25.746094 18.863281 25.304688 18.863281 24.863281 C 18.863281 24.484375 18.863281 24.105469 18.863281 23.726562 C 18.863281 23.5 18.863281 23.273438 18.863281 23.046875 C 18.863281 22.832031 18.863281 22.621094 18.863281 22.410156 C 18.863281 22.332031 18.863281 22.253906 18.863281 22.175781 C 18.863281 22.066406 18.863281 21.960938 18.863281 21.855469 C 18.863281 21.824219 18.863281 21.792969 18.863281 21.761719 C 18.863281 21.613281 18.871094 21.472656 18.90625 21.328125 C 18.863281 21.347656 18.824219 21.367188 18.78125 21.386719 C 17.761719 21.867188 16.742188 22.003906 15.625 22.03125 C 15.625 22.003906 15.625 21.980469 15.625 21.953125 C 15.589844 21.953125 15.589844 21.953125 15.554688 21.957031 C 15.292969 21.960938 15.058594 21.929688 14.804688 21.871094 C 14.765625 21.859375 14.726562 21.851562 14.6875 21.84375 C 14.089844 21.703125 13.546875 21.503906 13.007812 21.210938 C 12.964844 21.1875 12.921875 21.164062 12.878906 21.140625 C 12.628906 21 12.40625 20.84375 12.1875 20.664062 C 12.136719 20.625 12.136719 20.625 12.085938 20.582031 C 11.539062 20.148438 11.09375 19.640625 10.703125 19.0625 C 10.6875 19.039062 10.667969 19.015625 10.652344 18.988281 C 10.546875 18.835938 10.546875 18.835938 10.546875 18.75 C 10.507812 18.738281 10.46875 18.722656 10.429688 18.710938 C 10.429688 18.671875 10.429688 18.632812 10.429688 18.59375 C 10.386719 18.503906 10.339844 18.414062 10.289062 18.324219 C 10.09375 17.945312 9.957031 17.558594 9.84375 17.148438 C 9.835938 17.117188 9.824219 17.085938 9.816406 17.054688 C 9.679688 16.535156 9.671875 16.011719 9.671875 15.480469 C 9.671875 15.429688 9.671875 15.429688 9.667969 15.378906 C 9.667969 14.734375 9.738281 14.109375 9.917969 13.492188 C 9.9375 13.433594 9.9375 13.433594 9.953125 13.375 C 10.464844 11.738281 11.617188 10.421875 13.109375 9.601562 C 15.011719 8.605469 17.210938 8.59375 19.140625 9.53125 Z M 19.140625 9.53125 "/>
<path style=" stroke:none;fill-rule:nonzero;fill:rgb(6.27451%,13.725491%,24.313726%);fill-opacity:1;" d="M 19.820312 17.144531 C 19.855469 17.144531 19.890625 17.144531 19.929688 17.144531 C 19.96875 17.144531 20.007812 17.144531 20.050781 17.144531 C 20.113281 17.144531 20.113281 17.144531 20.175781 17.144531 C 20.320312 17.144531 20.460938 17.144531 20.605469 17.144531 C 20.707031 17.144531 20.808594 17.144531 20.910156 17.144531 C 21.128906 17.144531 21.347656 17.144531 21.566406 17.144531 C 21.882812 17.144531 22.199219 17.144531 22.515625 17.144531 C 23.03125 17.144531 23.546875 17.144531 24.058594 17.144531 C 24.558594 17.144531 25.058594 17.144531 25.558594 17.144531 C 25.589844 17.144531 25.621094 17.144531 25.652344 17.144531 C 25.808594 17.144531 25.960938 17.144531 26.117188 17.144531 C 27.398438 17.148438 28.679688 17.148438 29.960938 17.148438 C 29.972656 17.1875 29.988281 17.226562 30 17.265625 C 26.546875 17.277344 23.089844 17.292969 19.53125 17.304688 C 19.542969 17.265625 19.558594 17.226562 19.570312 17.1875 C 19.664062 17.140625 19.714844 17.144531 19.820312 17.144531 Z M 19.820312 17.144531 "/>
<path style=" stroke:none;fill-rule:nonzero;fill:rgb(6.27451%,12.156863%,21.176471%);fill-opacity:1;" d="M 28.832031 26.082031 C 28.917969 26.082031 29.003906 26.085938 29.089844 26.085938 C 29.40625 26.085938 29.722656 26.101562 30.039062 26.132812 C 30.039062 26.160156 30.039062 26.183594 30.039062 26.210938 C 30.003906 26.210938 30.003906 26.210938 29.96875 26.210938 C 29.722656 26.214844 29.476562 26.21875 29.230469 26.222656 C 29.140625 26.222656 29.050781 26.222656 28.957031 26.222656 C 28.824219 26.226562 28.695312 26.226562 28.5625 26.230469 C 28.5 26.230469 28.5 26.230469 28.4375 26.230469 C 28.164062 26.234375 28.164062 26.234375 27.929688 26.367188 C 27.875 26.472656 27.882812 26.5625 27.882812 26.679688 C 27.878906 26.75 27.878906 26.75 27.878906 26.824219 C 27.875 26.921875 27.871094 27.023438 27.871094 27.121094 C 27.867188 27.167969 27.867188 27.214844 27.867188 27.265625 C 27.863281 27.328125 27.863281 27.328125 27.863281 27.394531 C 27.851562 27.5 27.851562 27.5 27.773438 27.578125 C 27.667969 27.585938 27.667969 27.585938 27.535156 27.585938 C 27.484375 27.585938 27.433594 27.585938 27.378906 27.585938 C 27.324219 27.585938 27.265625 27.585938 27.207031 27.585938 C 27.148438 27.585938 27.089844 27.585938 27.03125 27.585938 C 26.867188 27.585938 26.707031 27.585938 26.542969 27.585938 C 26.375 27.585938 26.203125 27.585938 26.035156 27.585938 C 25.714844 27.585938 25.390625 27.585938 25.070312 27.582031 C 24.707031 27.582031 24.339844 27.582031 23.976562 27.582031 C 23.222656 27.582031 22.472656 27.578125 21.71875 27.578125 C 21.730469 27.539062 21.746094 27.5 21.757812 27.460938 C 23.730469 27.460938 25.703125 27.460938 27.734375 27.460938 C 27.734375 27.203125 27.734375 26.945312 27.734375 26.679688 C 27.78125 26.34375 27.78125 26.34375 27.929688 26.210938 C 28.226562 26.078125 28.511719 26.078125 28.832031 26.082031 Z M 28.832031 26.082031 "/>
<path style=" stroke:none;fill-rule:nonzero;fill:rgb(9.411765%,16.862746%,27.058825%);fill-opacity:1;" d="M 18.90625 21.289062 C 18.917969 21.289062 18.933594 21.289062 18.945312 21.289062 C 18.949219 21.683594 18.953125 22.078125 18.957031 22.472656 C 18.960938 22.671875 18.960938 22.875 18.964844 23.074219 C 18.976562 24.078125 18.984375 25.085938 18.988281 26.09375 C 18.988281 26.292969 18.992188 26.496094 18.992188 26.695312 C 18.992188 26.722656 18.992188 26.75 18.992188 26.78125 C 18.992188 26.894531 18.992188 27.007812 18.992188 27.125 C 18.996094 27.460938 18.996094 27.800781 18.996094 28.140625 C 18.996094 28.382812 19 28.621094 19 28.863281 C 19 28.960938 19 29.0625 19 29.164062 C 19 29.300781 19 29.4375 19.003906 29.574219 C 19.003906 29.613281 19.003906 29.652344 19 29.695312 C 19.003906 29.925781 19.027344 30.054688 19.179688 30.234375 C 19.066406 30.222656 19.03125 30.203125 18.957031 30.113281 C 18.851562 29.875 18.863281 29.601562 18.863281 29.339844 C 18.863281 29.308594 18.863281 29.273438 18.863281 29.238281 C 18.863281 29.128906 18.863281 29.019531 18.863281 28.90625 C 18.863281 28.828125 18.863281 28.746094 18.863281 28.664062 C 18.863281 28.449219 18.863281 28.230469 18.863281 28.015625 C 18.863281 27.789062 18.863281 27.558594 18.863281 27.332031 C 18.863281 26.953125 18.863281 26.570312 18.863281 26.1875 C 18.863281 25.746094 18.863281 25.308594 18.863281 24.867188 C 18.863281 24.488281 18.863281 24.109375 18.863281 23.730469 C 18.863281 23.503906 18.863281 23.277344 18.863281 23.050781 C 18.863281 22.839844 18.863281 22.625 18.863281 22.414062 C 18.863281 22.335938 18.863281 22.257812 18.863281 22.179688 C 18.863281 22.074219 18.863281 21.964844 18.863281 21.859375 C 18.863281 21.828125 18.863281 21.796875 18.863281 21.765625 C 18.863281 21.601562 18.875 21.449219 18.90625 21.289062 Z M 18.90625 21.289062 "/>
<path style=" stroke:none;fill-rule:nonzero;fill:rgb(6.27451%,12.156863%,20.392157%);fill-opacity:1;" d="M 17.539062 11.835938 C 18.042969 11.960938 18.425781 12.222656 18.828125 12.539062 C 18.855469 12.558594 18.882812 12.582031 18.910156 12.601562 C 18.960938 12.644531 19.011719 12.6875 19.0625 12.734375 C 19.0625 12.761719 19.0625 12.785156 19.0625 12.8125 C 19.097656 12.828125 19.097656 12.828125 19.132812 12.84375 C 19.226562 12.894531 19.292969 12.957031 19.371094 13.03125 C 19.46875 13.117188 19.523438 13.160156 19.648438 13.199219 C 20 13.097656 20.292969 12.679688 20.539062 12.425781 C 20.570312 12.394531 20.601562 12.363281 20.628906 12.332031 C 20.65625 12.304688 20.683594 12.277344 20.710938 12.246094 C 20.78125 12.1875 20.78125 12.1875 20.859375 12.1875 C 20.796875 12.335938 20.703125 12.429688 20.589844 12.542969 C 20.574219 12.5625 20.554688 12.582031 20.535156 12.601562 C 20.496094 12.640625 20.457031 12.679688 20.417969 12.71875 C 20.355469 12.777344 20.296875 12.839844 20.238281 12.898438 C 20.199219 12.9375 20.160156 12.976562 20.121094 13.011719 C 20.070312 13.066406 20.070312 13.066406 20.015625 13.117188 C 19.890625 13.230469 19.804688 13.273438 19.640625 13.304688 C 19.425781 13.269531 19.332031 13.15625 19.179688 13.007812 C 18.726562 12.566406 18.261719 12.207031 17.671875 11.960938 C 17.578125 11.914062 17.578125 11.914062 17.539062 11.835938 Z M 17.539062 11.835938 "/>
<path style=" stroke:none;fill-rule:nonzero;fill:rgb(0.392157%,2.352941%,7.843138%);fill-opacity:1;" d="M 30.273438 26.445312 C 30.300781 26.445312 30.324219 26.445312 30.351562 26.445312 C 30.359375 26.867188 30.363281 27.289062 30.367188 27.710938 C 30.371094 27.910156 30.375 28.105469 30.375 28.300781 C 30.378906 28.492188 30.382812 28.679688 30.382812 28.871094 C 30.386719 28.941406 30.386719 29.015625 30.386719 29.085938 C 30.390625 29.1875 30.390625 29.289062 30.390625 29.390625 C 30.390625 29.417969 30.390625 29.449219 30.394531 29.480469 C 30.398438 30.023438 30.398438 30.023438 30.195312 30.234375 C 30.15625 30.222656 30.117188 30.207031 30.078125 30.195312 C 30.101562 30.175781 30.128906 30.15625 30.15625 30.140625 C 30.269531 29.992188 30.257812 29.871094 30.253906 29.691406 C 30.257812 29.640625 30.257812 29.640625 30.257812 29.585938 C 30.257812 29.46875 30.257812 29.351562 30.257812 29.238281 C 30.257812 29.15625 30.257812 29.078125 30.261719 28.996094 C 30.261719 28.785156 30.261719 28.574219 30.261719 28.363281 C 30.265625 28.148438 30.265625 27.929688 30.265625 27.714844 C 30.269531 27.292969 30.273438 26.867188 30.273438 26.445312 Z M 30.273438 26.445312 "/>
<path style=" stroke:none;fill-rule:nonzero;fill:rgb(5.098039%,11.372549%,20.784314%);fill-opacity:1;" d="M 14.375 18.75 C 14.578125 18.78125 14.765625 18.859375 14.957031 18.9375 C 15.203125 19.035156 15.4375 19.070312 15.703125 19.0625 C 15.703125 19.074219 15.703125 19.089844 15.703125 19.101562 C 15.835938 19.132812 15.960938 19.144531 16.097656 19.144531 C 16.132812 19.144531 16.167969 19.144531 16.207031 19.144531 C 16.246094 19.144531 16.28125 19.144531 16.320312 19.144531 C 16.359375 19.144531 16.398438 19.144531 16.4375 19.140625 C 16.53125 19.140625 16.625 19.140625 16.71875 19.140625 C 16.730469 19.113281 16.746094 19.089844 16.757812 19.0625 C 16.863281 19.046875 16.964844 19.035156 17.070312 19.023438 C 17.136719 19.015625 17.199219 19.007812 17.265625 19 C 17.316406 18.996094 17.371094 18.988281 17.421875 18.984375 C 17.410156 19.011719 17.394531 19.035156 17.382812 19.0625 C 17.285156 19.09375 17.1875 19.121094 17.085938 19.144531 C 17.058594 19.148438 17.035156 19.15625 17.003906 19.164062 C 16.273438 19.339844 15.511719 19.285156 14.808594 19.027344 C 14.785156 19.015625 14.757812 19.007812 14.730469 18.996094 C 14.582031 18.9375 14.480469 18.871094 14.375 18.75 Z M 14.375 18.75 "/>
<path style=" stroke:none;fill-rule:nonzero;fill:rgb(5.882353%,12.156863%,21.568628%);fill-opacity:1;" d="M 18.632812 9.375 C 18.898438 9.390625 19.097656 9.496094 19.332031 9.621094 C 19.390625 9.652344 19.390625 9.652344 19.453125 9.683594 C 20.085938 10.027344 20.664062 10.464844 21.171875 10.976562 C 21.160156 11.015625 21.144531 11.054688 21.132812 11.09375 C 21.113281 11.070312 21.09375 11.050781 21.070312 11.027344 C 20.484375 10.414062 19.777344 9.972656 19.023438 9.609375 C 18.890625 9.542969 18.761719 9.480469 18.632812 9.414062 C 18.632812 9.402344 18.632812 9.386719 18.632812 9.375 Z M 18.632812 9.375 "/>
<path style=" stroke:none;fill-rule:nonzero;fill:rgb(3.529412%,8.627451%,17.254902%);fill-opacity:1;" d="M 27.8125 20.898438 C 27.820312 20.921875 27.832031 20.941406 27.839844 20.964844 C 27.910156 21.089844 27.96875 21.160156 28.085938 21.25 C 28.230469 21.277344 28.375 21.277344 28.523438 21.273438 C 28.566406 21.273438 28.609375 21.273438 28.65625 21.273438 C 28.746094 21.273438 28.835938 21.273438 28.925781 21.269531 C 29.0625 21.269531 29.199219 21.269531 29.335938 21.269531 C 29.425781 21.269531 29.511719 21.269531 29.601562 21.269531 C 29.660156 21.269531 29.660156 21.269531 29.722656 21.269531 C 30 21.265625 30 21.265625 30.234375 21.132812 C 30.226562 21.207031 30.226562 21.207031 30.195312 21.289062 C 29.933594 21.453125 29.566406 21.414062 29.265625 21.40625 C 29.230469 21.40625 29.199219 21.40625 29.164062 21.40625 C 29.089844 21.402344 29.019531 21.402344 28.945312 21.402344 C 28.835938 21.398438 28.726562 21.398438 28.613281 21.398438 C 28.542969 21.394531 28.472656 21.394531 28.402344 21.390625 C 28.371094 21.390625 28.335938 21.390625 28.304688 21.390625 C 28.105469 21.386719 27.996094 21.359375 27.851562 21.210938 C 27.796875 21.105469 27.808594 21.015625 27.8125 20.898438 Z M 27.8125 20.898438 "/>
<path style=" stroke:none;fill-rule:nonzero;fill:rgb(5.098039%,10.588235%,18.82353%);fill-opacity:1;" d="M 9.726562 14.648438 C 9.738281 14.648438 9.753906 14.648438 9.765625 14.648438 C 9.765625 14.691406 9.765625 14.734375 9.765625 14.777344 C 9.773438 15.800781 9.773438 15.800781 9.898438 16.816406 C 9.917969 16.929688 9.925781 17.03125 9.921875 17.148438 C 9.894531 17.148438 9.871094 17.148438 9.84375 17.148438 C 9.695312 16.578125 9.671875 16.023438 9.675781 15.4375 C 9.675781 15.402344 9.675781 15.363281 9.675781 15.324219 C 9.675781 15.222656 9.675781 15.117188 9.679688 15.011719 C 9.679688 14.980469 9.679688 14.945312 9.679688 14.914062 C 9.683594 14.691406 9.683594 14.691406 9.726562 14.648438 Z M 9.726562 14.648438 "/>
<path style=" stroke:none;fill-rule:nonzero;fill:rgb(5.882353%,11.372549%,19.215687%);fill-opacity:1;" d="M 11.445312 10.859375 C 11.484375 10.871094 11.523438 10.886719 11.5625 10.898438 C 11.535156 10.925781 11.511719 10.949219 11.484375 10.976562 C 10.925781 11.558594 10.507812 12.261719 10.195312 13.007812 C 10.148438 12.871094 10.164062 12.808594 10.222656 12.679688 C 10.238281 12.644531 10.253906 12.613281 10.269531 12.578125 C 10.289062 12.542969 10.304688 12.507812 10.320312 12.46875 C 10.339844 12.433594 10.359375 12.398438 10.375 12.359375 C 10.65625 11.796875 11.027344 11.324219 11.445312 10.859375 Z M 11.445312 10.859375 "/>
<path style=" stroke:none;fill-rule:nonzero;fill:rgb(6.666667%,13.725491%,23.921569%);fill-opacity:1;" d="M 17.1875 8.90625 C 17.207031 8.945312 17.207031 8.945312 17.226562 8.984375 C 16.53125 8.984375 15.835938 8.984375 15.117188 8.984375 C 15.117188 8.957031 15.117188 8.933594 15.117188 8.90625 C 15.792969 8.820312 16.515625 8.769531 17.1875 8.90625 Z M 17.1875 8.90625 "/>
<path style=" stroke:none;fill-rule:nonzero;fill:rgb(6.27451%,11.764706%,20.392157%);fill-opacity:1;" d="M 11.40625 19.882812 C 11.554688 19.945312 11.640625 20.035156 11.75 20.152344 C 12.171875 20.585938 12.691406 20.898438 13.203125 21.210938 C 13.070312 21.253906 13.054688 21.253906 12.917969 21.1875 C 12.867188 21.15625 12.816406 21.125 12.765625 21.089844 C 12.738281 21.074219 12.710938 21.054688 12.683594 21.039062 C 12.230469 20.742188 11.75 20.382812 11.40625 19.960938 C 11.40625 19.933594 11.40625 19.910156 11.40625 19.882812 Z M 11.40625 19.882812 "/>
<path style=" stroke:none;fill-rule:nonzero;fill:rgb(5.882353%,12.54902%,22.352941%);fill-opacity:1;" d="M 12.773438 16.992188 C 12.902344 17.109375 12.984375 17.230469 13.070312 17.378906 C 13.34375 17.839844 13.675781 18.1875 14.101562 18.507812 C 14.1875 18.570312 14.261719 18.632812 14.335938 18.710938 C 14 18.710938 13.640625 18.273438 13.414062 18.046875 C 13.125 17.746094 12.894531 17.394531 12.773438 16.992188 Z M 12.773438 16.992188 "/>
<path style=" stroke:none;fill-rule:nonzero;fill:rgb(8.627451%,14.509805%,23.529412%);fill-opacity:1;" d="M 15 21.835938 C 15.046875 21.839844 15.046875 21.839844 15.09375 21.84375 C 15.6875 21.890625 16.28125 21.878906 16.875 21.875 C 16.703125 21.992188 16.542969 21.996094 16.339844 22.003906 C 16.296875 22.007812 16.253906 22.007812 16.210938 22.007812 C 16.148438 22.011719 16.148438 22.011719 16.082031 22.015625 C 16.039062 22.015625 15.992188 22.015625 15.949219 22.019531 C 15.839844 22.023438 15.734375 22.027344 15.625 22.03125 C 15.625 22.003906 15.625 21.980469 15.625 21.953125 C 15.597656 21.953125 15.574219 21.953125 15.546875 21.953125 C 15.359375 21.957031 15.183594 21.953125 15 21.914062 C 15 21.886719 15 21.863281 15 21.835938 Z M 15 21.835938 "/>
<path style=" stroke:none;fill-rule:nonzero;fill:rgb(6.27451%,13.333334%,24.313726%);fill-opacity:1;" d="M 21.757812 27.460938 C 22.117188 27.460938 22.480469 27.460938 22.851562 27.460938 C 22.851562 27.472656 22.851562 27.488281 22.851562 27.5 C 23.160156 27.511719 23.46875 27.527344 23.789062 27.539062 C 23.789062 27.550781 23.789062 27.566406 23.789062 27.578125 C 23.105469 27.578125 22.421875 27.578125 21.71875 27.578125 C 21.730469 27.539062 21.746094 27.5 21.757812 27.460938 Z M 21.757812 27.460938 "/>
<path style=" stroke:none;fill-rule:nonzero;fill:rgb(5.882353%,12.156863%,20.784314%);fill-opacity:1;" d="M 13.023438 9.695312 C 13.042969 9.707031 13.0625 9.714844 13.085938 9.726562 C 13.03125 9.761719 13.03125 9.761719 12.976562 9.796875 C 12.636719 10.019531 12.3125 10.257812 11.992188 10.507812 C 11.886719 10.585938 11.785156 10.664062 11.679688 10.742188 C 11.679688 10.625 11.679688 10.625 11.734375 10.5625 C 11.933594 10.394531 12.136719 10.242188 12.347656 10.089844 C 12.378906 10.070312 12.410156 10.046875 12.441406 10.023438 C 12.5 9.984375 12.558594 9.941406 12.617188 9.898438 C 12.664062 9.863281 12.714844 9.828125 12.761719 9.792969 C 12.910156 9.683594 12.910156 9.683594 13.023438 9.695312 Z M 13.023438 9.695312 "/>
<path style=" stroke:none;fill-rule:nonzero;fill:rgb(5.098039%,10.588235%,19.607843%);fill-opacity:1;" d="M 16.835938 11.640625 C 16.835938 11.652344 16.835938 11.667969 16.835938 11.679688 C 16.800781 11.683594 16.765625 11.683594 16.726562 11.6875 C 16.59375 11.695312 16.460938 11.703125 16.328125 11.710938 C 16.273438 11.714844 16.214844 11.71875 16.15625 11.722656 C 16.074219 11.726562 15.992188 11.730469 15.910156 11.738281 C 15.859375 11.738281 15.808594 11.742188 15.757812 11.746094 C 15.644531 11.757812 15.539062 11.773438 15.429688 11.796875 C 15.375 11.800781 15.316406 11.800781 15.261719 11.800781 C 15.191406 11.796875 15.191406 11.796875 15.117188 11.796875 C 15.230469 11.683594 15.355469 11.679688 15.507812 11.65625 C 15.539062 11.648438 15.570312 11.644531 15.601562 11.640625 C 16.007812 11.578125 16.433594 11.5625 16.835938 11.640625 Z M 16.835938 11.640625 "/>
<path style=" stroke:none;fill-rule:nonzero;fill:rgb(5.882353%,10.980392%,19.215687%);fill-opacity:1;" d="M 13.242188 13.007812 C 13.269531 13.007812 13.292969 13.007812 13.320312 13.007812 C 13.265625 13.164062 13.1875 13.292969 13.09375 13.429688 C 12.914062 13.714844 12.804688 14.019531 12.695312 14.335938 C 12.667969 14.335938 12.644531 14.335938 12.617188 14.335938 C 12.636719 14.113281 12.699219 13.9375 12.796875 13.738281 C 12.8125 13.707031 12.824219 13.679688 12.839844 13.648438 C 12.949219 13.421875 13.070312 13.195312 13.242188 13.007812 Z M 13.242188 13.007812 "/>
<path style=" stroke:none;fill-rule:nonzero;fill:rgb(6.27451%,12.941177%,21.568628%);fill-opacity:1;" d="M 18.476562 18.320312 C 18.515625 18.332031 18.554688 18.347656 18.59375 18.359375 C 17.757812 18.984375 17.757812 18.984375 17.460938 18.984375 C 17.460938 18.957031 17.460938 18.933594 17.460938 18.90625 C 17.5 18.886719 17.542969 18.867188 17.582031 18.847656 C 17.875 18.707031 18.144531 18.566406 18.402344 18.367188 C 18.425781 18.351562 18.449219 18.335938 18.476562 18.320312 Z M 18.476562 18.320312 "/>
<path style=" stroke:none;fill-rule:nonzero;fill:rgb(4.705882%,9.019608%,16.078432%);fill-opacity:1;" d="M 10.585938 18.75 C 10.734375 18.886719 10.839844 19.042969 10.953125 19.210938 C 11.097656 19.425781 11.246094 19.636719 11.40625 19.84375 C 11.101562 19.710938 10.917969 19.394531 10.742188 19.125 C 10.726562 19.101562 10.710938 19.078125 10.695312 19.054688 C 10.585938 18.882812 10.585938 18.882812 10.585938 18.75 Z M 10.585938 18.75 "/>
<path style=" stroke:none;fill-rule:nonzero;fill:rgb(0.392157%,0.784314%,4.705882%);fill-opacity:1;" d="M 27.8125 20.898438 C 27.820312 20.921875 27.832031 20.941406 27.839844 20.964844 C 27.929688 21.121094 28.03125 21.230469 28.203125 21.289062 C 28.296875 21.296875 28.394531 21.300781 28.488281 21.300781 C 28.53125 21.300781 28.53125 21.300781 28.570312 21.304688 C 28.660156 21.304688 28.746094 21.308594 28.835938 21.3125 C 28.894531 21.3125 28.953125 21.3125 29.015625 21.316406 C 29.160156 21.320312 29.308594 21.324219 29.453125 21.328125 C 29.453125 21.339844 29.453125 21.355469 29.453125 21.367188 C 29.257812 21.371094 29.058594 21.375 28.863281 21.375 C 28.796875 21.375 28.730469 21.378906 28.664062 21.378906 C 28.566406 21.382812 28.46875 21.382812 28.375 21.382812 C 28.328125 21.382812 28.328125 21.382812 28.285156 21.386719 C 28.136719 21.386719 28.054688 21.371094 27.929688 21.292969 C 27.828125 21.1875 27.8125 21.160156 27.808594 21.011719 C 27.8125 20.972656 27.8125 20.9375 27.8125 20.898438 Z M 27.8125 20.898438 "/>
<path style=" stroke:none;fill-rule:nonzero;fill:rgb(5.882353%,11.764706%,20.784314%);fill-opacity:1;" d="M 27.8125 27.382812 C 27.824219 27.421875 27.839844 27.460938 27.851562 27.5 C 27.773438 27.578125 27.773438 27.578125 27.640625 27.585938 C 27.582031 27.585938 27.527344 27.585938 27.472656 27.585938 C 27.445312 27.585938 27.417969 27.585938 27.390625 27.585938 C 27.214844 27.582031 27.046875 27.566406 26.875 27.539062 C 27 27.457031 27.023438 27.453125 27.164062 27.457031 C 27.210938 27.457031 27.210938 27.457031 27.261719 27.457031 C 27.3125 27.460938 27.3125 27.460938 27.367188 27.460938 C 27.433594 27.464844 27.5 27.464844 27.570312 27.464844 C 27.613281 27.46875 27.613281 27.46875 27.660156 27.46875 C 27.742188 27.46875 27.742188 27.46875 27.8125 27.382812 Z M 27.8125 27.382812 "/>
<path style=" stroke:none;fill-rule:nonzero;fill:rgb(5.882353%,10.980392%,19.607843%);fill-opacity:1;" d="M 14.179688 12.226562 C 14.179688 12.253906 14.179688 12.277344 14.179688 12.304688 C 14.117188 12.355469 14.050781 12.402344 13.980469 12.449219 C 13.667969 12.667969 13.667969 12.667969 13.4375 12.96875 C 13.398438 12.957031 13.359375 12.941406 13.320312 12.929688 C 13.902344 12.226562 13.902344 12.226562 14.179688 12.226562 Z M 14.179688 12.226562 "/>
<path style=" stroke:none;fill-rule:nonzero;fill:rgb(7.450981%,13.725491%,22.745098%);fill-opacity:1;" d="M 20.390625 10.3125 C 20.671875 10.511719 20.921875 10.742188 21.171875 10.976562 C 21.160156 11.015625 21.144531 11.054688 21.132812 11.09375 C 21.109375 11.070312 21.085938 11.042969 21.058594 11.019531 C 20.867188 10.824219 20.679688 10.644531 20.453125 10.488281 C 20.433594 10.46875 20.410156 10.449219 20.390625 10.429688 C 20.390625 10.390625 20.390625 10.351562 20.390625 10.3125 Z M 20.390625 10.3125 "/>
<path style=" stroke:none;fill-rule:nonzero;fill:rgb(6.27451%,11.764706%,20.392157%);fill-opacity:1;" d="M 18.554688 21.367188 C 18.582031 21.378906 18.605469 21.394531 18.632812 21.40625 C 18.320312 21.621094 17.96875 21.792969 17.578125 21.757812 C 17.679688 21.691406 17.742188 21.660156 17.855469 21.625 C 17.886719 21.613281 17.917969 21.605469 17.949219 21.59375 C 17.980469 21.582031 18.011719 21.574219 18.042969 21.5625 C 18.109375 21.542969 18.171875 21.523438 18.234375 21.5 C 18.261719 21.492188 18.289062 21.484375 18.316406 21.472656 C 18.402344 21.445312 18.402344 21.445312 18.480469 21.398438 C 18.507812 21.390625 18.53125 21.378906 18.554688 21.367188 Z M 18.554688 21.367188 "/>
<path style=" stroke:none;fill-rule:nonzero;fill:rgb(3.921569%,14.117648%,28.235295%);fill-opacity:1;" d="M 18.945312 28.867188 C 18.957031 28.867188 18.972656 28.867188 18.984375 28.867188 C 18.984375 28.898438 18.984375 28.933594 18.984375 28.96875 C 18.988281 29.089844 18.988281 29.214844 18.992188 29.339844 C 18.992188 29.390625 18.996094 29.445312 18.996094 29.5 C 18.996094 29.574219 18.996094 29.652344 19 29.730469 C 19 29.777344 19 29.820312 19.003906 29.871094 C 19.027344 30.023438 19.085938 30.109375 19.179688 30.234375 C 19.109375 30.226562 19.109375 30.226562 19.023438 30.195312 C 18.917969 30.058594 18.886719 29.9375 18.867188 29.765625 C 18.894531 29.765625 18.917969 29.765625 18.945312 29.765625 C 18.945312 29.46875 18.945312 29.171875 18.945312 28.867188 Z M 18.945312 28.867188 "/>
<path style=" stroke:none;fill-rule:nonzero;fill:rgb(3.529412%,7.450981%,14.117648%);fill-opacity:1;" d="M 27.8125 20 C 27.824219 20 27.839844 20 27.851562 20 C 27.855469 20.136719 27.855469 20.269531 27.855469 20.40625 C 27.855469 20.445312 27.859375 20.480469 27.859375 20.523438 C 27.859375 20.558594 27.859375 20.59375 27.859375 20.632812 C 27.859375 20.667969 27.859375 20.699219 27.859375 20.734375 C 27.851562 20.820312 27.851562 20.820312 27.773438 20.898438 C 27.722656 20.609375 27.738281 20.328125 27.773438 20.039062 C 27.785156 20.027344 27.800781 20.011719 27.8125 20 Z M 27.8125 20 "/>
<path style=" stroke:none;fill-rule:nonzero;fill:rgb(7.450981%,14.901961%,25.098041%);fill-opacity:1;" d="M 17.421875 18.984375 C 17.410156 19.011719 17.394531 19.035156 17.382812 19.0625 C 17.285156 19.09375 17.1875 19.121094 17.085938 19.148438 C 17.046875 19.160156 17.046875 19.160156 17.003906 19.171875 C 16.804688 19.222656 16.648438 19.214844 16.445312 19.179688 C 16.445312 19.167969 16.445312 19.152344 16.445312 19.140625 C 16.535156 19.140625 16.625 19.140625 16.71875 19.140625 C 16.730469 19.113281 16.746094 19.089844 16.757812 19.0625 C 16.835938 19.050781 16.914062 19.039062 16.992188 19.03125 C 17.074219 19.023438 17.074219 19.023438 17.15625 19 C 17.246094 18.980469 17.328125 18.980469 17.421875 18.984375 Z M 17.421875 18.984375 "/>
<path style=" stroke:none;fill-rule:nonzero;fill:rgb(6.27451%,12.156863%,20.392157%);fill-opacity:1;" d="M 13.945312 9.296875 C 13.824219 9.398438 13.699219 9.457031 13.554688 9.515625 C 13.515625 9.535156 13.472656 9.550781 13.433594 9.566406 C 13.34375 9.601562 13.257812 9.628906 13.164062 9.648438 C 13.164062 9.621094 13.164062 9.597656 13.164062 9.570312 C 13.257812 9.523438 13.351562 9.480469 13.445312 9.433594 C 13.472656 9.421875 13.496094 9.40625 13.523438 9.394531 C 13.671875 9.324219 13.78125 9.277344 13.945312 9.296875 Z M 13.945312 9.296875 "/>
<path style=" stroke:none;fill-rule:nonzero;fill:rgb(7.450981%,13.333334%,21.568628%);fill-opacity:1;" d="M 21.289062 11.210938 C 21.363281 11.234375 21.363281 11.234375 21.445312 11.289062 C 21.492188 11.449219 21.492188 11.539062 21.4375 11.695312 C 21.367188 11.796875 21.367188 11.796875 21.28125 11.832031 C 21.246094 11.832031 21.246094 11.832031 21.210938 11.835938 C 21.230469 11.816406 21.25 11.800781 21.269531 11.78125 C 21.355469 11.632812 21.34375 11.492188 21.328125 11.328125 C 21.316406 11.289062 21.300781 11.25 21.289062 11.210938 Z M 21.289062 11.210938 "/>
<path style=" stroke:none;fill-rule:nonzero;fill:rgb(6.27451%,12.54902%,21.176471%);fill-opacity:1;" d="M 15 21.835938 C 15.207031 21.847656 15.414062 21.863281 15.625 21.875 C 15.625 21.902344 15.625 21.925781 15.625 21.953125 C 15.414062 21.957031 15.210938 21.957031 15 21.914062 C 15 21.886719 15 21.863281 15 21.835938 Z M 15 21.835938 "/>
<path style=" stroke:none;fill-rule:nonzero;fill:rgb(5.490196%,10.588235%,18.82353%);fill-opacity:1;" d="M 12.539062 16.210938 C 12.578125 16.230469 12.578125 16.230469 12.617188 16.25 C 12.648438 16.355469 12.675781 16.457031 12.699219 16.566406 C 12.707031 16.59375 12.714844 16.625 12.722656 16.65625 C 12.738281 16.726562 12.757812 16.800781 12.773438 16.875 C 12.746094 16.886719 12.722656 16.902344 12.695312 16.914062 C 12.667969 16.832031 12.644531 16.753906 12.617188 16.671875 C 12.601562 16.628906 12.589844 16.582031 12.574219 16.535156 C 12.542969 16.421875 12.53125 16.328125 12.539062 16.210938 Z M 12.539062 16.210938 "/>
<path style=" stroke:none;fill-rule:nonzero;fill:rgb(3.921569%,9.803922%,18.431373%);fill-opacity:1;" d="M 19.0625 17.773438 C 19.089844 17.785156 19.113281 17.800781 19.140625 17.8125 C 19.097656 17.863281 19.054688 17.910156 19.011719 17.960938 C 18.988281 17.988281 18.964844 18.015625 18.9375 18.046875 C 18.878906 18.113281 18.816406 18.179688 18.75 18.242188 C 18.722656 18.230469 18.699219 18.214844 18.671875 18.203125 C 18.730469 18.140625 18.789062 18.074219 18.84375 18.011719 C 18.878906 17.972656 18.910156 17.9375 18.941406 17.902344 C 19.023438 17.8125 19.023438 17.8125 19.0625 17.773438 Z M 19.0625 17.773438 "/>
<path style=" stroke:none;fill-rule:nonzero;fill:rgb(4.313726%,9.019608%,16.470589%);fill-opacity:1;" d="M 12.773438 16.992188 C 12.933594 17.128906 13.046875 17.304688 13.125 17.5 C 13.113281 17.539062 13.097656 17.578125 13.085938 17.617188 C 13.035156 17.527344 12.980469 17.4375 12.929688 17.347656 C 12.914062 17.324219 12.898438 17.296875 12.882812 17.273438 C 12.773438 17.078125 12.773438 17.078125 12.773438 16.992188 Z M 12.773438 16.992188 "/>
<path style=" stroke:none;fill-rule:nonzero;fill:rgb(4.705882%,8.627451%,14.509805%);fill-opacity:1;" d="M 30.3125 29.6875 C 30.339844 29.699219 30.363281 29.714844 30.390625 29.726562 C 30.375 29.949219 30.355469 30.066406 30.195312 30.234375 C 30.15625 30.222656 30.117188 30.207031 30.078125 30.195312 C 30.101562 30.175781 30.125 30.160156 30.152344 30.140625 C 30.265625 30 30.285156 29.863281 30.3125 29.6875 Z M 30.3125 29.6875 "/>
<path style=" stroke:none;fill-rule:nonzero;fill:rgb(6.27451%,13.333334%,22.745098%);fill-opacity:1;" d="M 18.476562 18.320312 C 18.515625 18.332031 18.554688 18.347656 18.59375 18.359375 C 18.539062 18.40625 18.484375 18.453125 18.429688 18.5 C 18.382812 18.539062 18.382812 18.539062 18.335938 18.578125 C 18.242188 18.632812 18.242188 18.632812 18.152344 18.621094 C 18.128906 18.613281 18.109375 18.601562 18.085938 18.59375 C 18.148438 18.546875 18.210938 18.5 18.273438 18.453125 C 18.328125 18.414062 18.328125 18.414062 18.378906 18.375 C 18.410156 18.359375 18.445312 18.339844 18.476562 18.320312 Z M 18.476562 18.320312 "/>
<path style=" stroke:none;fill-rule:nonzero;fill:rgb(7.058824%,14.117648%,23.921569%);fill-opacity:1;" d="M 13.125 17.539062 C 13.277344 17.679688 13.394531 17.839844 13.515625 18.007812 C 13.378906 17.984375 13.320312 17.945312 13.234375 17.839844 C 13.210938 17.816406 13.191406 17.792969 13.171875 17.769531 C 13.125 17.695312 13.125 17.695312 13.125 17.539062 Z M 13.125 17.539062 "/>
<path style=" stroke:none;fill-rule:nonzero;fill:rgb(8.627451%,14.509805%,22.352941%);fill-opacity:1;" d="M 19.882812 13.085938 C 19.921875 13.097656 19.960938 13.113281 20 13.125 C 19.824219 13.261719 19.714844 13.300781 19.492188 13.28125 C 19.480469 13.242188 19.464844 13.203125 19.453125 13.164062 C 19.53125 13.167969 19.609375 13.167969 19.6875 13.171875 C 19.777344 13.167969 19.777344 13.167969 19.882812 13.085938 Z M 19.882812 13.085938 "/>
<path style=" stroke:none;fill-rule:nonzero;fill:rgb(5.490196%,12.941177%,22.745098%);fill-opacity:1;" d="M 10 17.460938 C 10.039062 17.460938 10.078125 17.460938 10.117188 17.460938 C 10.144531 17.601562 10.167969 17.746094 10.195312 17.890625 C 10.15625 17.890625 10.117188 17.890625 10.078125 17.890625 C 10.03125 17.738281 10 17.621094 10 17.460938 Z M 10 17.460938 "/>
<path style=" stroke:none;fill-rule:nonzero;fill:rgb(5.490196%,11.372549%,19.607843%);fill-opacity:1;" d="M 13.242188 21.25 C 13.617188 21.363281 13.617188 21.363281 13.75 21.484375 C 13.582031 21.464844 13.429688 21.445312 13.28125 21.367188 C 13.269531 21.328125 13.253906 21.289062 13.242188 21.25 Z M 13.242188 21.25 "/>
<path style=" stroke:none;fill-rule:nonzero;fill:rgb(5.490196%,9.803922%,17.254902%);fill-opacity:1;" d="M 27.8125 20.898438 C 27.820312 20.921875 27.832031 20.941406 27.839844 20.964844 C 27.890625 21.0625 27.890625 21.0625 27.992188 21.15625 C 28.085938 21.25 28.085938 21.25 28.125 21.367188 C 27.972656 21.316406 27.886719 21.277344 27.8125 21.132812 C 27.804688 21.007812 27.804688 21.007812 27.8125 20.898438 Z M 27.8125 20.898438 "/>
<path style=" stroke:none;fill-rule:nonzero;fill:rgb(6.666667%,12.156863%,19.607843%);fill-opacity:1;" d="M 12.578125 14.375 C 12.589844 14.375 12.605469 14.375 12.617188 14.375 C 12.605469 14.542969 12.589844 14.710938 12.578125 14.882812 C 12.550781 14.882812 12.527344 14.882812 12.5 14.882812 C 12.492188 14.695312 12.507812 14.550781 12.578125 14.375 Z M 12.578125 14.375 "/>
<path style=" stroke:none;fill-rule:nonzero;fill:rgb(9.019608%,16.862746%,27.450982%);fill-opacity:1;" d="M 17.226562 11.71875 C 17.226562 11.730469 17.226562 11.746094 17.226562 11.757812 C 16.976562 11.761719 16.734375 11.75 16.484375 11.71875 C 16.484375 11.707031 16.484375 11.691406 16.484375 11.679688 C 16.753906 11.636719 16.964844 11.652344 17.226562 11.71875 Z M 17.226562 11.71875 "/>
<path style=" stroke:none;fill-rule:nonzero;fill:rgb(5.490196%,9.019608%,15.686275%);fill-opacity:1;" d="M 18.90625 29.804688 C 19.03125 29.867188 19.050781 29.992188 19.101562 30.117188 C 19.140625 30.175781 19.140625 30.175781 19.179688 30.234375 C 19.109375 30.226562 19.109375 30.226562 19.023438 30.195312 C 18.921875 30.0625 18.890625 29.96875 18.90625 29.804688 Z M 18.90625 29.804688 "/>
<path style=" stroke:none;fill-rule:nonzero;fill:rgb(4.705882%,9.411765%,17.254902%);fill-opacity:1;" d="M 19.960938 10.078125 C 20.15625 10.09375 20.25 10.183594 20.390625 10.3125 C 20.378906 10.339844 20.363281 10.363281 20.351562 10.390625 C 20.285156 10.347656 20.222656 10.300781 20.15625 10.257812 C 20.121094 10.230469 20.082031 10.207031 20.046875 10.179688 C 20.019531 10.160156 19.988281 10.140625 19.960938 10.117188 C 19.960938 10.105469 19.960938 10.089844 19.960938 10.078125 Z M 19.960938 10.078125 "/>
<path style=" stroke:none;fill-rule:nonzero;fill:rgb(4.313726%,9.411765%,17.647059%);fill-opacity:1;" d="M 17.539062 21.757812 C 17.539062 21.785156 17.539062 21.808594 17.539062 21.835938 C 17.421875 21.871094 17.320312 21.878906 17.195312 21.878906 C 17.167969 21.878906 17.136719 21.875 17.101562 21.875 C 17.078125 21.875 17.054688 21.875 17.03125 21.875 C 17.207031 21.785156 17.339844 21.753906 17.539062 21.757812 Z M 17.539062 21.757812 "/>
<path style=" stroke:none;fill-rule:nonzero;fill:rgb(5.098039%,10.196079%,17.647059%);fill-opacity:1;" d="M 12.929688 9.6875 C 12.980469 9.699219 13.03125 9.714844 13.085938 9.726562 C 12.910156 9.84375 12.910156 9.84375 12.734375 9.960938 C 12.707031 9.949219 12.683594 9.933594 12.65625 9.921875 C 12.746094 9.832031 12.824219 9.757812 12.929688 9.6875 Z M 12.929688 9.6875 "/>
<path style=" stroke:none;fill-rule:nonzero;fill:rgb(7.843138%,13.725491%,21.568628%);fill-opacity:1;" d="M 30.039062 26.171875 C 30.128906 26.199219 30.21875 26.222656 30.3125 26.25 C 30.3125 26.316406 30.3125 26.378906 30.3125 26.445312 C 30.191406 26.40625 30.160156 26.378906 30.078125 26.289062 C 30.050781 26.261719 30.027344 26.238281 30 26.210938 C 30.011719 26.199219 30.027344 26.183594 30.039062 26.171875 Z M 30.039062 26.171875 "/>
<path style=" stroke:none;fill-rule:nonzero;fill:rgb(4.705882%,9.411765%,17.254902%);fill-opacity:1;" d="M 13.4375 18.007812 C 13.589844 18.074219 13.703125 18.171875 13.828125 18.28125 C 13.816406 18.320312 13.800781 18.359375 13.789062 18.398438 C 13.730469 18.339844 13.671875 18.28125 13.613281 18.226562 C 13.582031 18.191406 13.546875 18.160156 13.515625 18.128906 C 13.4375 18.046875 13.4375 18.046875 13.4375 18.007812 Z M 13.4375 18.007812 "/>
<path style=" stroke:none;fill-rule:nonzero;fill:rgb(4.705882%,9.411765%,17.254902%);fill-opacity:1;" d="M 17.96875 21.601562 C 17.96875 21.640625 17.96875 21.679688 17.96875 21.71875 C 17.832031 21.765625 17.71875 21.761719 17.578125 21.757812 C 17.707031 21.671875 17.820312 21.640625 17.96875 21.601562 Z M 17.96875 21.601562 "/>
<path style=" stroke:none;fill-rule:nonzero;fill:rgb(4.705882%,9.803922%,18.039216%);fill-opacity:1;" d="M 18.984375 9.53125 C 19.128906 9.550781 19.246094 9.574219 19.375 9.648438 C 19.375 9.675781 19.375 9.699219 19.375 9.726562 C 19.230469 9.699219 19.113281 9.636719 18.984375 9.570312 C 18.984375 9.558594 18.984375 9.542969 18.984375 9.53125 Z M 18.984375 9.53125 "/>
<path style=" stroke:none;fill-rule:nonzero;fill:rgb(6.666667%,12.54902%,21.568628%);fill-opacity:1;" d="M 10.820312 19.101562 C 10.921875 19.1875 10.921875 19.1875 11.015625 19.296875 C 11.007812 19.386719 11.007812 19.386719 10.976562 19.453125 C 10.820312 19.277344 10.820312 19.277344 10.820312 19.101562 Z M 10.820312 19.101562 "/>
<path style=" stroke:none;fill-rule:nonzero;fill:rgb(5.098039%,9.411765%,15.686275%);fill-opacity:1;" d="M 10.195312 17.96875 C 10.296875 18.089844 10.34375 18.207031 10.390625 18.359375 C 10.273438 18.320312 10.273438 18.320312 10.226562 18.230469 C 10.195312 18.125 10.195312 18.125 10.195312 17.96875 Z M 10.195312 17.96875 "/>
<path style=" stroke:none;fill-rule:nonzero;fill:rgb(5.098039%,9.803922%,17.254902%);fill-opacity:1;" d="M 19.375 17.382812 C 19.402344 17.394531 19.425781 17.410156 19.453125 17.421875 C 19.335938 17.578125 19.335938 17.578125 19.21875 17.734375 C 19.207031 17.695312 19.191406 17.65625 19.179688 17.617188 C 19.234375 17.527344 19.304688 17.460938 19.375 17.382812 Z M 19.375 17.382812 "/>
<path style=" stroke:none;fill-rule:nonzero;fill:rgb(5.098039%,9.803922%,17.647059%);fill-opacity:1;" d="M 14.21875 21.640625 C 14.476562 21.671875 14.476562 21.671875 14.609375 21.757812 C 14.351562 21.761719 14.351562 21.761719 14.21875 21.71875 C 14.21875 21.691406 14.21875 21.667969 14.21875 21.640625 Z M 14.21875 21.640625 "/>
<path style=" stroke:none;fill-rule:nonzero;fill:rgb(4.313726%,8.627451%,16.470589%);fill-opacity:1;" d="M 13.789062 21.484375 C 13.917969 21.523438 14.046875 21.5625 14.179688 21.601562 C 14.179688 21.613281 14.179688 21.628906 14.179688 21.640625 C 14.070312 21.648438 14.070312 21.648438 13.945312 21.640625 C 13.851562 21.5625 13.851562 21.5625 13.789062 21.484375 Z M 13.789062 21.484375 "/>
<path style=" stroke:none;fill-rule:nonzero;fill:rgb(3.921569%,9.019608%,17.254902%);fill-opacity:1;" d="M 18.097656 18.640625 C 18.128906 18.65625 18.128906 18.65625 18.164062 18.671875 C 17.957031 18.796875 17.957031 18.796875 17.890625 18.828125 C 17.863281 18.816406 17.839844 18.800781 17.8125 18.789062 C 17.984375 18.628906 17.984375 18.628906 18.097656 18.640625 Z M 18.097656 18.640625 "/>
<path style=" stroke:none;fill-rule:nonzero;fill:rgb(5.490196%,10.980392%,19.607843%);fill-opacity:1;" d="M 18.242188 9.21875 C 18.332031 9.230469 18.421875 9.246094 18.515625 9.257812 C 18.527344 9.296875 18.542969 9.335938 18.554688 9.375 C 18.460938 9.351562 18.371094 9.324219 18.28125 9.296875 C 18.269531 9.269531 18.253906 9.246094 18.242188 9.21875 Z M 18.242188 9.21875 "/>
<path style=" stroke:none;fill-rule:nonzero;fill:rgb(15.294118%,27.058825%,42.745098%);fill-opacity:1;" d="M 17.070312 11.835938 C 17.226562 11.875 17.226562 11.875 17.226562 11.875 Z M 17.070312 11.835938 "/>
<path style=" stroke:none;fill-rule:nonzero;fill:rgb(14.509805%,26.274511%,41.176471%);fill-opacity:1;" d="M 18.945312 9.375 C 18.984375 9.386719 19.023438 9.402344 19.0625 9.414062 C 19.023438 9.414062 18.984375 9.414062 18.945312 9.414062 C 18.945312 9.402344 18.945312 9.386719 18.945312 9.375 Z M 18.945312 9.375 "/>
<path style=" stroke:none;fill-rule:nonzero;fill:rgb(18.431373%,28.235295%,41.568628%);fill-opacity:1;" d="M 18.789062 29.882812 C 18.816406 29.882812 18.839844 29.882812 18.867188 29.882812 C 18.855469 29.910156 18.839844 29.933594 18.828125 29.960938 C 18.816406 29.933594 18.800781 29.910156 18.789062 29.882812 Z M 18.789062 29.882812 "/>
<path style=" stroke:none;fill-rule:nonzero;fill:rgb(16.470589%,28.235295%,42.745098%);fill-opacity:1;" d="M 18.75 26.5625 C 18.789062 26.582031 18.789062 26.582031 18.828125 26.601562 C 18.789062 26.621094 18.789062 26.621094 18.75 26.640625 C 18.75 26.613281 18.75 26.589844 18.75 26.5625 Z M 18.75 26.5625 "/>
<path style=" stroke:none;fill-rule:nonzero;fill:rgb(16.470589%,28.235295%,42.352942%);fill-opacity:1;" d="M 28.125 26.054688 C 28.242188 26.09375 28.242188 26.09375 28.242188 26.09375 Z M 28.125 26.054688 "/>
<path style=" stroke:none;fill-rule:nonzero;fill:rgb(17.647059%,28.235295%,41.568628%);fill-opacity:1;" d="M 15.3125 21.992188 C 15.429688 22.03125 15.429688 22.03125 15.429688 22.03125 Z M 15.3125 21.992188 "/>
<path style=" stroke:none;fill-rule:nonzero;fill:rgb(15.686275%,27.450982%,42.745098%);fill-opacity:1;" d="M 15.664062 11.757812 C 15.78125 11.796875 15.78125 11.796875 15.78125 11.796875 Z M 15.664062 11.757812 "/>
<path style=" stroke:none;fill-rule:nonzero;fill:rgb(15.686275%,27.843139%,42.352942%);fill-opacity:1;" d="M 11.875 10.3125 C 11.992188 10.351562 11.992188 10.351562 11.992188 10.351562 Z M 11.875 10.3125 "/>
<path style=" stroke:none;fill-rule:nonzero;fill:rgb(16.470589%,29.019609%,42.745098%);fill-opacity:1;" d="M 18.789062 21.445312 C 18.867188 21.484375 18.867188 21.484375 18.867188 21.484375 Z M 18.789062 21.445312 "/>
<path style=" stroke:none;fill-rule:nonzero;fill:rgb(14.901961%,27.058825%,42.352942%);fill-opacity:1;" d="M 16.5625 19.0625 C 16.640625 19.101562 16.640625 19.101562 16.640625 19.101562 Z M 16.5625 19.0625 "/>
<path style=" stroke:none;fill-rule:nonzero;fill:rgb(14.509805%,27.843139%,43.137255%);fill-opacity:1;" d="M 15.742188 19.0625 C 15.820312 19.101562 15.820312 19.101562 15.820312 19.101562 Z M 15.742188 19.0625 "/>
<path style=" stroke:none;fill-rule:nonzero;fill:rgb(15.294118%,26.666668%,42.352942%);fill-opacity:1;" d="M 17.929688 12.109375 C 18.007812 12.148438 18.007812 12.148438 18.007812 12.148438 Z M 17.929688 12.109375 "/>
<path style=" stroke:none;fill-rule:nonzero;fill:rgb(15.686275%,27.843139%,43.137255%);fill-opacity:1;" d="M 16.5625 11.757812 C 16.640625 11.796875 16.640625 11.796875 16.640625 11.796875 Z M 16.5625 11.757812 "/>
<path style=" stroke:none;fill-rule:nonzero;fill:rgb(15.294118%,27.843139%,41.960785%);fill-opacity:1;" d="M 13.359375 9.375 C 13.4375 9.414062 13.4375 9.414062 13.4375 9.414062 Z M 13.359375 9.375 "/>
</g>
</svg>
